<svg width="109" height="34" viewBox="0 0 109 34" fill="none" xmlns="http://www.w3.org/2000/svg">
<path d="M9.456 0.399902H17.616V33.9999H8.016V10.4319L2.208 11.8239L0 3.8079L9.456 0.399902Z" fill="#761E33"/>
<path d="M42.3244 33.9999L41.1724 29.6799H31.4764L30.3244 33.9999H20.0044L30.7084 0.399902H41.9404L52.6444 33.9999H42.3244ZM33.5404 21.9999H39.1084L36.3244 11.6799L33.5404 21.9999Z" fill="#761E33"/>
<path d="M68.0119 0.399902C71.4999 0.399902 74.4119 1.5039 76.7479 3.7119C79.0839 5.8879 80.2519 8.7999 80.2519 12.4479C80.2519 16.0959 79.0839 19.0239 76.7479 21.2319C74.4119 23.4079 71.4999 24.4959 68.0119 24.4959H64.1719V33.9999H54.5719V0.399902H68.0119ZM68.0119 15.1839C68.7479 15.1839 69.3719 14.9439 69.8839 14.4639C70.3959 13.9519 70.6519 13.2799 70.6519 12.4479C70.6519 11.6159 70.3959 10.9599 69.8839 10.4799C69.3719 9.9679 68.7479 9.7119 68.0119 9.7119H64.1719V15.1839H68.0119Z" fill="#761E33"/>
<path d="M96.5588 0.399902C100.047 0.399902 102.959 1.5039 105.295 3.7119C107.631 5.8879 108.799 8.7999 108.799 12.4479C108.799 16.0959 107.631 19.0239 105.295 21.2319C102.959 23.4079 100.047 24.4959 96.5588 24.4959H92.7188V33.9999H83.1188V0.399902H96.5588ZM96.5588 15.1839C97.2948 15.1839 97.9187 14.9439 98.4307 14.4639C98.9427 13.9519 99.1988 13.2799 99.1988 12.4479C99.1988 11.6159 98.9427 10.9599 98.4307 10.4799C97.9187 9.9679 97.2948 9.7119 96.5588 9.7119H92.7188V15.1839H96.5588Z" fill="#761E33"/>
</svg>
