<svg width="165" height="165" viewBox="0 0 165 165" fill="none" xmlns="http://www.w3.org/2000/svg">
<path d="M87.6315 64.3651C87.653 64.3288 87.6777 64.3288 87.7074 64.3651L87.6629 64.4014L87.6315 64.3651Z" fill="#0124DD"/>
<path d="M49.7244 77.0435C50.2012 75.6014 50.6533 74.2385 51.0955 72.8872C51.15 72.7222 51.2605 72.6842 51.4041 72.6578C53.7916 72.2123 56.1891 71.8328 58.6278 71.9533C60.3487 72.0341 62.0037 72.3856 63.4854 73.3096C65.4951 74.5603 66.4141 76.4446 66.5445 78.7546C66.6204 80.0828 66.4042 81.3946 66.2145 82.6948C65.8201 85.3447 65.4142 87.9913 65.0331 90.6412C65.0227 90.7523 64.9826 90.8585 64.917 90.9488C64.8514 91.0391 64.7627 91.1101 64.6602 91.1543C63.1059 92.0074 61.4196 92.4743 59.6871 92.7581C57.543 93.1296 55.3561 93.1852 53.196 92.9231C51.3958 92.6971 49.7178 92.1377 48.411 90.8144C47.8439 90.2337 47.4036 89.5415 47.1182 88.7817C46.8328 88.0218 46.7084 87.211 46.7529 86.4005C46.7974 85.5901 47.0099 84.7977 47.3769 84.0737C47.7438 83.3497 48.2572 82.7099 48.8845 82.1948C50.2243 81.0926 51.8083 80.5448 53.4765 80.1901C56.0026 79.6555 58.5519 79.7281 61.1028 79.9228C61.4212 79.9459 61.4905 79.8485 61.5054 79.5647C61.6192 77.5748 60.4246 76.1459 58.3275 75.7615C56.8722 75.4942 55.4433 75.7252 54.0144 75.9595C52.5564 76.1994 51.1213 76.562 49.7244 77.0435V77.0435ZM58.6476 83.0462C57.7395 83.0403 56.8324 83.1071 55.935 83.2459C54.9648 83.4109 54.0226 83.6666 53.2405 84.3101C52.3561 85.0378 52.1202 86.0146 52.2951 87.0904C52.4601 88.0721 53.1465 88.61 54.0358 88.9268C54.4435 89.0702 54.8676 89.1617 55.2981 89.1991C56.8887 89.3525 58.4331 89.0753 59.9676 88.6958C60.0717 88.6821 60.1671 88.6307 60.2358 88.5513C60.3046 88.4719 60.3418 88.3701 60.3405 88.2652C60.55 86.7059 60.7579 85.145 60.9889 83.5891C61.0285 83.3201 60.9394 83.269 60.715 83.2261C60.0315 83.1132 59.3403 83.0531 58.6476 83.0462V83.0462Z" fill="#114185"/>
<path d="M123.387 87.91C123.123 88.7119 122.892 89.4297 122.648 90.1474C122.453 90.7365 122.245 91.3206 122.06 91.9146C122.043 92.0055 121.998 92.0891 121.933 92.1549C121.868 92.2207 121.785 92.2657 121.694 92.2842C119.17 92.9574 116.612 93.322 114.005 92.9937C111.035 92.6191 108.58 91.3437 107.075 88.6196C106.149 86.9333 105.856 85.0968 105.981 83.2042C106.22 79.6039 107.72 76.6191 110.509 74.3074C112.203 72.9016 114.18 72.1789 116.355 71.9644C117.855 71.8176 119.346 71.8456 120.81 72.2532C123.79 73.0782 125.776 75.3964 126.157 78.4654C126.377 80.2293 126.157 81.9618 125.872 83.6959C125.837 83.9121 125.728 83.9187 125.563 83.9187C124.763 83.9187 123.961 83.9187 123.161 83.9187C119.311 83.9187 115.461 83.9187 111.611 83.9187C111.301 83.9187 111.21 83.9946 111.205 84.313C111.162 86.9068 112.594 88.6195 115.144 89.0568C117.028 89.3868 118.861 89.1014 120.691 88.7021C121.606 88.4974 122.507 88.2328 123.387 87.91V87.91ZM116.655 80.551H120.351C121.48 80.551 121.48 80.551 121.518 79.4224C121.595 77.1372 120.198 75.6472 117.925 75.5202C115.208 75.3667 112.645 77.3352 111.985 80.2557C111.931 80.4982 111.985 80.5576 112.233 80.556C113.703 80.5444 115.17 80.551 116.655 80.551Z" fill="#114185"/>
<path d="M132.874 93.0595C130.452 93.0434 128.047 92.6424 125.75 91.8715C125.52 91.7923 125.459 91.7263 125.542 91.4771C125.919 90.3342 126.281 89.1859 126.626 88.032C126.712 87.7482 126.812 87.7712 127.04 87.8801C129.246 88.9593 131.738 89.3106 134.157 88.8834C134.724 88.7969 135.262 88.5763 135.727 88.2398C135.942 88.0908 136.121 87.8953 136.251 87.668C136.381 87.4406 136.457 87.1871 136.476 86.926C136.495 86.665 136.455 86.4031 136.359 86.1596C136.263 85.9161 136.114 85.6972 135.922 85.519C135.503 85.1308 135.032 84.8021 134.523 84.5422C133.261 83.836 131.977 83.1744 130.777 82.356C127.555 80.1499 127.948 75.558 131.121 73.5433C132.526 72.6507 134.066 72.2035 135.701 72.0336C138.427 71.7514 141.062 72.2184 143.659 73.0005C143.896 73.0714 143.958 73.1358 143.867 73.3882C143.476 74.4723 143.098 75.5629 142.743 76.6601C142.649 76.9489 142.537 76.9274 142.314 76.8251C140.69 76.0587 138.911 75.6748 137.115 75.7032C136.244 75.7246 135.394 75.8682 134.656 76.383C134.343 76.5829 134.104 76.8802 133.976 77.2293C133.847 77.5783 133.837 77.9598 133.947 78.3151C134.089 78.7136 134.357 79.0548 134.711 79.287C135.475 79.8612 136.349 80.2489 137.186 80.7076C138.209 81.242 139.186 81.8613 140.106 82.5589C142.826 84.7171 142.55 88.8289 139.941 90.9178C138.258 92.2626 136.288 92.8005 134.193 92.9919C133.666 93.0381 133.143 93.0463 132.874 93.0595Z" fill="#114185"/>
<path d="M150.673 93.0601C148.283 93.037 145.91 92.64 143.642 91.8836C143.38 91.7962 143.312 91.7186 143.41 91.4414C143.783 90.3227 144.136 89.1974 144.479 88.0688C144.561 87.7949 144.644 87.7553 144.911 87.884C147.108 88.9532 149.585 89.3052 151.993 88.8905C152.509 88.8095 153.003 88.6255 153.447 88.3493C154.541 87.6514 154.674 86.3693 153.75 85.4717C153.363 85.1235 152.932 84.8268 152.468 84.589C151.148 83.8399 149.777 83.17 148.535 82.279C145.669 80.2082 146.025 76.4611 147.777 74.5801C148.959 73.3145 150.45 72.6347 152.105 72.2701C154.301 71.7751 156.496 71.8939 158.689 72.2998C159.613 72.4648 160.517 72.7156 161.421 72.9598C161.721 73.0439 161.83 73.133 161.703 73.4762C161.322 74.5108 160.976 75.5569 160.639 76.6112C160.545 76.9 160.451 76.9412 160.167 76.8175C158.564 76.0649 156.813 75.682 155.042 75.6971C154.217 75.712 153.42 75.8341 152.701 76.2664C152.019 76.6739 151.675 77.2663 151.777 78.0814C151.841 78.5995 152.153 78.9608 152.546 79.2578C153.371 79.8832 154.32 80.2957 155.217 80.7907C156.24 81.3566 157.25 81.9457 158.143 82.7063C160.644 84.8513 160.362 88.8278 157.852 90.8738C156.504 91.9744 154.94 92.5453 153.252 92.8406C152.399 92.9792 151.537 93.0525 150.673 93.0601Z" fill="#114185"/>
<path d="M85.305 88.2021C85.2209 88.6971 85.008 89.141 84.8513 89.6079C84.5526 90.4973 84.2342 91.3784 83.9388 92.2694C83.9171 92.3584 83.8678 92.4384 83.7978 92.4977C83.7278 92.5569 83.6409 92.5925 83.5494 92.5994C81.5694 92.9294 79.568 93.1389 77.5566 92.9871C74.5553 92.761 71.9813 91.6671 70.2125 89.1096C68.9651 87.3078 68.5245 85.2601 68.6351 83.1036C68.8199 79.5066 70.3445 76.563 73.1544 74.3091C74.7648 73.0188 76.659 72.3852 78.677 72.1212C81.1749 71.7672 83.7185 71.9192 86.1564 72.5683C86.6217 72.6954 87.0705 72.8736 87.5276 73.0221C87.6926 73.0749 87.7355 73.1458 87.6744 73.3257C87.285 74.4642 86.8989 75.606 86.5343 76.7528C86.4534 77.0052 86.3396 76.954 86.1762 76.8897C85.0112 76.412 83.7775 76.1229 82.5215 76.0333C79.8039 75.8799 77.4411 76.6273 75.7449 78.8895C74.156 81.0097 73.9101 84.5309 75.6113 86.6594C76.6689 87.9794 78.0648 88.6789 79.7214 88.872C81.5084 89.0799 83.2359 88.7351 84.942 88.245C85.0509 88.2137 85.1615 88.1922 85.272 88.1658L85.305 88.2021Z" fill="#114185"/>
<path d="M104.115 88.1789C103.736 89.2712 103.3 90.352 102.988 91.4674C102.762 92.2808 102.381 92.6669 101.493 92.756C99.0182 93.0035 96.5432 93.2807 94.0682 92.6257C90.1758 91.5911 87.6332 88.4858 87.422 84.4499C87.191 80.0643 88.8707 76.5596 92.4033 73.9675C93.8883 72.8802 95.6208 72.3653 97.4292 72.1294C99.9265 71.7765 102.469 71.928 104.907 72.5749C105.359 72.6986 105.793 72.8835 106.244 73.0138C106.479 73.0831 106.486 73.1903 106.409 73.3966C106.031 74.5004 105.656 75.6043 105.305 76.7164C105.221 76.9821 105.12 76.9721 104.904 76.8896C103.175 76.2296 101.406 75.8716 99.5396 76.0646C96.3699 76.4045 93.9576 78.5001 93.3488 81.5839C92.9099 83.8098 93.3125 85.8459 95.0862 87.4216C96.5003 88.6756 98.2212 89.0254 100.054 88.9182C101.348 88.833 102.626 88.5892 103.859 88.1921C103.934 88.1789 104 88.1179 104.115 88.1789Z" fill="#114185"/>
<path d="M41.2566 83.6385L20.7026 63.0845V66.2393L38.1018 83.6385L38.1084 83.6451L23.0373 98.7162L23.0192 98.6981L7.95799 83.6385L7.94479 83.6253L15.3384 76.2317H12.1292L4.72894 83.6319L4.73554 83.6385L23.0126 101.916L23.0192 101.909L41.2731 83.655L41.2566 83.6385Z" fill="#FE6309"/>
<path d="M20.6959 68.4106V71.5654L32.7756 83.6451L23.0439 93.3768L13.3039 83.6385L13.2907 83.6253L20.6844 76.2316H17.4751L10.0749 83.6319L10.0815 83.6385L21.4318 94.9888L23.0191 96.5761L24.6328 94.9641L35.9403 83.655L20.6959 68.4106Z" fill="#FE6309"/>
<path d="M30.6125 83.6388L24.585 77.6048L22.9812 76.001L21.4038 77.5784L15.345 83.6322L21.4071 89.6943L22.9944 91.2816L24.6048 89.6696L30.629 83.6553L30.6125 83.6388ZM23.0225 88.0938L18.5675 83.6388L18.5543 83.6256L22.9977 79.1822L27.4527 83.6372L23.0225 88.0938Z" fill="#FE6309"/>
</svg>
