<svg width="46" height="45" viewBox="0 0 46 45" fill="none" xmlns="http://www.w3.org/2000/svg">
<path d="M22.5007 10.0569C20.0395 10.0566 17.6334 10.7862 15.5869 12.1533C13.5403 13.5205 11.9451 15.4639 11.0031 17.7376C10.061 20.0114 9.81437 22.5135 10.2944 24.9274C10.7743 27.3414 11.9594 29.5588 13.6996 31.2993C15.4399 33.0397 17.6571 34.225 20.071 34.7053C22.4849 35.1855 24.987 34.9392 27.2609 33.9974C29.5348 33.0556 31.4784 31.4606 32.8458 29.4142C34.2132 27.3678 34.943 24.9619 34.943 22.5007C34.9392 19.2018 33.6271 16.0392 31.2946 13.7064C28.9621 11.3736 25.7995 10.0611 22.5007 10.0569ZM22.5007 33.4832C20.3281 33.4834 18.2043 32.8395 16.3978 31.6326C14.5913 30.4258 13.1832 28.7104 12.3517 26.7033C11.5201 24.6962 11.3025 22.4875 11.7263 20.3567C12.15 18.2259 13.1962 16.2686 14.7324 14.7324C16.2686 13.1962 18.2259 12.15 20.3567 11.7263C22.4875 11.3025 24.6962 11.5201 26.7033 12.3517C28.7104 13.1832 30.4258 14.5913 31.6326 16.3978C32.8395 18.2043 33.4834 20.3281 33.4832 22.5007C33.4797 25.4123 32.3215 28.2038 30.2626 30.2626C28.2038 32.3215 25.4123 33.4797 22.5007 33.4832Z" fill="#4F4F4F"/>
<path d="M44.4088 18.0657L41.2467 17.4584C40.81 15.832 40.1621 14.2698 39.3197 12.8117L41.1285 10.1445C41.2245 10.0039 41.2683 9.83404 41.2523 9.66448C41.2363 9.49492 41.1615 9.33629 41.0409 9.21606L35.7854 3.96058C35.6654 3.84069 35.5073 3.76637 35.3384 3.75038C35.1695 3.73439 35.0003 3.77775 34.8599 3.87299L32.1912 5.68175C30.7326 4.83922 29.17 4.19137 27.5431 3.75474L26.9358 0.592701C26.9039 0.425971 26.8148 0.275578 26.684 0.167401C26.5532 0.0592245 26.3887 2.86941e-05 26.219 0H18.7825C18.6127 2.86941e-05 18.4483 0.0592245 18.3175 0.167401C18.1866 0.275578 18.0976 0.425971 18.0657 0.592701L17.4584 3.75474C15.8322 4.1919 14.27 4.83972 12.8117 5.68175L10.1445 3.87299C10.0039 3.77698 9.83404 3.73318 9.66448 3.74918C9.49492 3.76517 9.33629 3.83996 9.21606 3.96058L3.96059 9.21606C3.84069 9.33611 3.76637 9.49417 3.75038 9.66308C3.7344 9.83199 3.77775 10.0012 3.87299 10.1416L5.68175 12.8117C4.83973 14.27 4.1919 15.8322 3.75475 17.4584L0.592702 18.0657C0.425972 18.0976 0.275579 18.1866 0.167403 18.3175C0.0592257 18.4483 2.99183e-05 18.6127 1.22415e-06 18.7825V26.2175C-0.00031 26.3875 0.0587311 26.5523 0.166937 26.6834C0.275143 26.8146 0.425726 26.9038 0.592702 26.9358L3.75475 27.5431C4.191 29.1692 4.83888 30.7309 5.68175 32.1883L3.87299 34.8569C3.77775 34.9973 3.7344 35.1665 3.75038 35.3355C3.76637 35.5044 3.84069 35.6624 3.96059 35.7825L9.21606 41.038C9.33593 41.1581 9.4939 41.2327 9.66282 41.2489C9.83173 41.2652 10.001 41.2221 10.1416 41.127L12.8088 39.3182C14.2669 40.1608 15.8291 40.8086 17.4555 41.2453L18.0628 44.4073C18.0947 44.574 18.1837 44.7244 18.3145 44.8326C18.4454 44.9408 18.6098 45 18.7796 45H26.2161C26.3858 45 26.5503 44.9408 26.6811 44.8326C26.8119 44.7244 26.9009 44.574 26.9328 44.4073L27.5401 41.2453C29.167 40.8086 30.7297 40.1608 32.1883 39.3182L34.8555 41.127C34.9961 41.2236 35.1661 41.2679 35.336 41.2521C35.5059 41.2364 35.6649 41.1616 35.7854 41.0409L41.0409 35.7854C41.1614 35.6654 41.2362 35.5072 41.2524 35.3379C41.2687 35.1687 41.2254 34.9991 41.1299 34.8584L39.3212 32.1912C40.1633 30.7335 40.8112 29.1718 41.2482 27.546L44.4117 26.9387C44.5784 26.9064 44.7286 26.8171 44.8365 26.686C44.9445 26.5549 45.0033 26.3902 45.0029 26.2204V18.7825C45.0028 18.6125 44.9434 18.4479 44.835 18.3171C44.7265 18.1862 44.5758 18.0973 44.4088 18.0657ZM43.5416 25.6146L40.5153 26.1985C40.3776 26.2249 40.2503 26.2905 40.1488 26.3873C40.0473 26.4841 39.9759 26.6082 39.9431 26.7445C39.5064 28.5402 38.7933 30.257 37.8292 31.8336C37.7559 31.9533 37.7188 32.0917 37.7221 32.232C37.7255 32.3723 37.7693 32.5087 37.8482 32.6248L39.581 35.1766L35.1781 39.581L32.6263 37.8511C32.5114 37.7735 32.3768 37.7303 32.2382 37.7264C32.0997 37.7225 31.9628 37.7582 31.8438 37.8292C30.261 38.796 28.5371 39.5102 26.7343 39.946C26.5984 39.979 26.4748 40.0503 26.3783 40.1515C26.2818 40.2527 26.2163 40.3795 26.1898 40.5168L25.6058 43.5416H19.3854L18.8015 40.5168C18.7748 40.3793 18.7092 40.2524 18.6123 40.1512C18.5155 40.0499 18.3917 39.9787 18.2555 39.946C16.4597 39.5083 14.7429 38.7942 13.1664 37.8292C13.0468 37.7562 12.9088 37.7192 12.7687 37.7226C12.6287 37.726 12.4926 37.7696 12.3766 37.8482L9.82482 39.581L5.42044 35.1766L7.15037 32.6234C7.22868 32.5076 7.2721 32.3717 7.27547 32.232C7.27883 32.0922 7.242 31.9545 7.16934 31.835C6.20601 30.2565 5.49293 28.5384 5.05548 26.7416C5.02274 26.6054 4.95152 26.4815 4.85031 26.3847C4.7491 26.2879 4.62217 26.2223 4.48467 26.1956L1.45986 25.6117V19.3854L4.48467 18.8015C4.62069 18.7757 4.74658 18.7118 4.84765 18.6172C4.94871 18.5226 5.02079 18.4012 5.05548 18.2672C5.49259 16.4675 6.20671 14.7468 7.17226 13.1664C7.24522 13.0468 7.28222 12.9088 7.27886 12.7687C7.27549 12.6287 7.2319 12.4926 7.15329 12.3766L5.42044 9.82482L9.82482 5.42044L12.3766 7.14891C12.4926 7.22752 12.6287 7.27111 12.7687 7.27448C12.9088 7.27784 13.0468 7.24084 13.1664 7.16788C14.747 6.20386 16.4678 5.49122 18.2672 5.05547C18.4033 5.02274 18.5272 4.95152 18.624 4.85031C18.7208 4.7491 18.7865 4.62217 18.8131 4.48467L19.3971 1.45985H25.6277L26.2117 4.48467C26.2382 4.62198 26.3037 4.74878 26.4002 4.84997C26.4967 4.95116 26.6203 5.02249 26.7562 5.05547C28.5514 5.49363 30.2676 6.20772 31.8438 7.17226C31.9634 7.24522 32.1014 7.28222 32.2415 7.27886C32.3815 7.27549 32.5176 7.2319 32.6336 7.15328L35.1781 5.42044L39.581 9.82482L37.8511 12.3766C37.7725 12.4926 37.7289 12.6287 37.7255 12.7687C37.7222 12.9088 37.7592 13.0468 37.8321 13.1664C38.7964 14.7467 39.5086 16.4676 39.9431 18.2672C39.976 18.4037 40.0477 18.5279 40.1494 18.6247C40.2512 18.7216 40.3788 18.787 40.5168 18.8131L43.5416 19.3971V25.6146Z" fill="#4F4F4F"/>
<path d="M22.5008 6.81885C19.3993 6.81885 16.3674 7.73857 13.7885 9.4617C11.2097 11.1848 9.19972 13.634 8.0128 16.4995C6.82589 19.3649 6.51534 22.518 7.12042 25.56C7.7255 28.6019 9.21905 31.3961 11.4122 33.5893C13.6053 35.7824 16.3995 37.2759 19.4415 37.881C22.4835 38.4861 25.6365 38.1756 28.502 36.9887C31.3675 35.8017 33.8166 33.7918 35.5397 31.2129C37.2629 28.6341 38.1826 25.6022 38.1826 22.5006C38.178 18.343 36.5243 14.3569 33.5844 11.417C30.6445 8.47715 26.6585 6.82348 22.5008 6.81885ZM22.5008 36.7225C19.688 36.7225 16.9384 35.8884 14.5996 34.3257C12.2608 32.763 10.438 30.5418 9.36153 27.9431C8.28511 25.3444 8.00347 22.4848 8.55222 19.726C9.10098 16.9673 10.4555 14.4332 12.4444 12.4442C14.4334 10.4552 16.9675 9.10073 19.7263 8.55197C22.4851 8.00322 25.3446 8.28486 27.9433 9.36128C30.542 10.4377 32.7632 12.2606 34.3259 14.5993C35.8886 16.9381 36.7227 19.6878 36.7227 22.5006C36.7185 26.2712 35.2188 29.8861 32.5526 32.5523C29.8864 35.2185 26.2714 36.7182 22.5008 36.7225Z" fill="#4F4F4F"/>
<path d="M19.4031 23.0919L17.9652 19.5182C17.9109 19.3836 17.8178 19.2683 17.6976 19.1869C17.5775 19.1055 17.4358 19.0618 17.2907 19.0613C17.146 19.061 17.0045 19.1038 16.8842 19.1841C16.7638 19.2644 16.6701 19.3787 16.6148 19.5124L15.1331 23.0846L14.1681 25.4204C14.1315 25.5091 14.1127 25.6041 14.1128 25.7C14.1129 25.7959 14.1319 25.8909 14.1687 25.9795C14.2055 26.0681 14.2594 26.1486 14.3273 26.2163C14.3952 26.2841 14.4758 26.3378 14.5645 26.3744C14.6531 26.411 14.7481 26.4298 14.8441 26.4297C14.94 26.4296 15.035 26.4106 15.1235 26.3738C15.2121 26.337 15.2926 26.2831 15.3604 26.2152C15.4281 26.1473 15.4819 26.0667 15.5185 25.9781L16.2951 24.0978H18.2382L18.9944 25.9722C19.0283 26.0637 19.0803 26.1475 19.1472 26.2185C19.214 26.2896 19.2945 26.3466 19.3837 26.386C19.473 26.4254 19.5693 26.4466 19.6668 26.4482C19.7644 26.4497 19.8613 26.4317 19.9518 26.3952C20.0423 26.3587 20.1246 26.3044 20.1937 26.2356C20.2629 26.1667 20.3175 26.0847 20.3544 25.9944C20.3913 25.904 20.4098 25.8072 20.4086 25.7096C20.4074 25.612 20.3867 25.5157 20.3477 25.4262L19.4031 23.0919ZM16.8966 22.6467L17.2776 21.7226L17.6499 22.6467H16.8966Z" fill="#4F4F4F"/>
<path d="M28.7868 18.5591C28.5932 18.5591 28.4076 18.636 28.2707 18.7729C28.1338 18.9098 28.0569 19.0954 28.0569 19.289V25.7124C28.0569 25.906 28.1338 26.0916 28.2707 26.2285C28.4076 26.3654 28.5932 26.4423 28.7868 26.4423C28.9804 26.4423 29.1661 26.3654 29.3029 26.2285C29.4398 26.0916 29.5167 25.906 29.5167 25.7124V19.289C29.5167 19.0954 29.4398 18.9098 29.3029 18.7729C29.1661 18.636 28.9804 18.5591 28.7868 18.5591Z" fill="#4F4F4F"/>
<path d="M24.187 18.5591H22.3286C22.135 18.5591 21.9493 18.636 21.8124 18.7729C21.6755 18.9098 21.5986 19.0954 21.5986 19.289V25.7124C21.5986 25.906 21.6755 26.0916 21.8124 26.2285C21.9493 26.3654 22.135 26.4423 22.3286 26.4423C22.5221 26.4423 22.7078 26.3654 22.8447 26.2285C22.9816 26.0916 23.0585 25.906 23.0585 25.7124V23.2306H24.187C24.8064 23.2306 25.4005 22.9845 25.8386 22.5465C26.2766 22.1084 26.5227 21.5143 26.5227 20.8948C26.5227 20.2754 26.2766 19.6813 25.8386 19.2432C25.4005 18.8052 24.8064 18.5591 24.187 18.5591ZM24.187 21.7708H23.0585V20.0189H24.187C24.4193 20.0189 24.6421 20.1112 24.8063 20.2755C24.9706 20.4397 25.0629 20.6625 25.0629 20.8948C25.0629 21.1272 24.9706 21.3499 24.8063 21.5142C24.6421 21.6785 24.4193 21.7708 24.187 21.7708Z" fill="#4F4F4F"/>
</svg>
