<svg width="45" height="45" viewBox="0 0 45 45" fill="none" xmlns="http://www.w3.org/2000/svg">
<path d="M39.9867 18.2489C39.5492 16.4475 38.8348 14.725 37.8689 13.1428L39.8615 10.2023L34.799 5.13981L31.8586 7.12966C30.2751 6.16431 28.5517 5.44992 26.7497 5.01185L26.0817 1.52856H18.9183L18.2503 5.01185C16.4487 5.44992 14.7258 6.16433 13.1428 7.12966L10.2023 5.13841L5.13981 10.2009L7.12966 13.1428C6.16444 14.7252 5.45049 16.4477 5.01325 18.2489L1.52856 18.9183V26.0803L5.01325 26.7511C5.45075 28.5522 6.16469 30.2747 7.12966 31.8572L5.13841 34.7962L10.2009 39.8587L13.1414 37.8661C14.7238 38.8326 16.4469 39.547 18.2489 39.9839L18.9168 43.4686H26.0803L26.7483 39.9839C28.5507 39.547 30.2743 38.8326 31.8572 37.8661L34.7962 39.8587L39.8587 34.7962L37.8661 31.8572C38.8317 30.2748 39.5461 28.5523 39.9839 26.7511L43.4686 26.0803V18.9183L39.9867 18.2489ZM22.5 33.7823C20.2681 33.7826 18.0863 33.121 16.2305 31.8812C14.3747 30.6415 12.9282 28.8792 12.074 26.8173C11.2198 24.7554 10.9962 22.4865 11.4316 20.2976C11.8669 18.1086 12.9416 16.0979 14.5197 14.5197C16.0979 12.9416 18.1086 11.8669 20.2976 11.4316C22.4865 10.9962 24.7554 11.2198 26.8173 12.074C28.8792 12.9282 30.6415 14.3747 31.8812 16.2305C33.121 18.0863 33.7826 20.2681 33.7823 22.5C33.7823 25.4922 32.5936 28.3619 30.4778 30.4778C28.3619 32.5936 25.4922 33.7823 22.5 33.7823Z" fill="#5EB8E1"/>
<path d="M22.5 8.09717C19.6514 8.09717 16.8667 8.94188 14.4982 10.5245C12.1297 12.1071 10.2836 14.3565 9.19352 16.9883C8.10341 19.62 7.81818 22.516 8.37392 25.3098C8.92966 28.1037 10.3014 30.67 12.3157 32.6843C14.3299 34.6986 16.8963 36.0703 19.6901 36.626C22.484 37.1818 25.3799 36.8966 28.0117 35.8064C30.6435 34.7163 32.8929 32.8703 34.4755 30.5018C36.0581 28.1332 36.9028 25.3486 36.9028 22.5C36.9028 20.6086 36.5303 18.7357 35.8064 16.9883C35.0826 15.2408 34.0217 13.6531 32.6843 12.3157C31.3469 10.9782 29.7591 9.91733 28.0117 9.19352C26.2643 8.46971 24.3914 8.09717 22.5 8.09717V8.09717ZM22.5 33.7823C20.2681 33.7826 18.0864 33.121 16.2305 31.8813C14.3747 30.6415 12.9282 28.8792 12.074 26.8173C11.2198 24.7554 10.9962 22.4865 11.4316 20.2976C11.8669 18.1086 12.9416 16.0979 14.5198 14.5198C16.0979 12.9416 18.1086 11.8669 20.2976 11.4316C22.4865 10.9962 24.7554 11.2198 26.8173 12.074C28.8792 12.9282 30.6415 14.3747 31.8813 16.2305C33.121 18.0864 33.7826 20.2681 33.7823 22.5C33.7823 25.4922 32.5937 28.362 30.4778 30.4778C28.362 32.5937 25.4922 33.7823 22.5 33.7823Z" fill="#5555A5"/>
<path d="M19.5158 23.0695L18.1306 19.627C18.0783 19.4974 17.9886 19.3862 17.8729 19.3078C17.7572 19.2294 17.6207 19.1873 17.4809 19.1868V19.1868C17.3416 19.1866 17.2052 19.2277 17.0893 19.3051C16.9734 19.3825 16.8831 19.4926 16.8298 19.6214L15.4025 23.0625L14.473 25.3125C14.4377 25.3979 14.4196 25.4894 14.4197 25.5818C14.4198 25.6742 14.4381 25.7657 14.4735 25.851C14.509 25.9364 14.5609 26.0139 14.6263 26.0791C14.6917 26.1444 14.7693 26.1962 14.8548 26.2314C14.9402 26.2667 15.0317 26.2848 15.1241 26.2847C15.2165 26.2846 15.308 26.2663 15.3933 26.2309C15.4787 26.1954 15.5562 26.1435 15.6214 26.0781C15.6867 26.0127 15.7385 25.9351 15.7737 25.8496L16.5219 24.0384H18.3936L19.122 25.844C19.1547 25.9321 19.2048 26.0128 19.2692 26.0813C19.3336 26.1497 19.4111 26.2046 19.4971 26.2426C19.5831 26.2806 19.6758 26.3009 19.7698 26.3025C19.8638 26.304 19.9571 26.2867 20.0443 26.2515C20.1315 26.2163 20.2107 26.164 20.2773 26.0977C20.344 26.0314 20.3966 25.9524 20.4321 25.8653C20.4677 25.7783 20.4854 25.685 20.4843 25.591C20.4832 25.497 20.4632 25.4042 20.4256 25.3181L19.5158 23.0695ZM17.8283 22.6392H17.1026L17.4697 21.749L17.8283 22.6392Z" fill="#837AFF"/>
<path d="M28.5552 18.7031C28.3687 18.7031 28.1899 18.7771 28.058 18.909C27.9261 19.0409 27.8521 19.2197 27.8521 19.4062V25.5937C27.8521 25.7802 27.9261 25.959 28.058 26.0909C28.1899 26.2227 28.3687 26.2968 28.5552 26.2968C28.7417 26.2968 28.9205 26.2227 29.0524 26.0909C29.1842 25.959 29.2583 25.7802 29.2583 25.5937V19.4062C29.2583 19.2197 29.1842 19.0409 29.0524 18.909C28.9205 18.7771 28.7417 18.7031 28.5552 18.7031Z" fill="#837AFF"/>
<path d="M24.1241 18.7031H22.334C22.1475 18.7031 21.9687 18.7771 21.8368 18.909C21.7049 19.0409 21.6309 19.2197 21.6309 19.4062V25.5937C21.6309 25.7802 21.7049 25.959 21.8368 26.0909C21.9687 26.2227 22.1475 26.2968 22.334 26.2968C22.5205 26.2968 22.6993 26.2227 22.8312 26.0909C22.963 25.959 23.0371 25.7802 23.0371 25.5937V23.2031H24.1241C24.7209 23.2031 25.2932 22.966 25.7151 22.5441C26.1371 22.1221 26.3741 21.5498 26.3741 20.9531C26.3741 20.3563 26.1371 19.784 25.7151 19.3621C25.2932 18.9401 24.7209 18.7031 24.1241 18.7031V18.7031ZM24.1241 21.7968H23.0371V20.1093H24.1241C24.3479 20.1093 24.5625 20.1982 24.7208 20.3564C24.879 20.5147 24.9679 20.7293 24.9679 20.9531C24.9679 21.1768 24.879 21.3915 24.7208 21.5497C24.5625 21.7079 24.3479 21.7968 24.1241 21.7968V21.7968Z" fill="#837AFF"/>
</svg>
