<svg width="279" height="79" viewBox="0 0 279 79" fill="none" xmlns="http://www.w3.org/2000/svg">
<path d="M80.027 39.5V79H80.7022H81.3774V39.5V2.01166e-07H80.7022H80.027V39.5Z" fill="#F2F2F2"/>
<path d="M16.5623 6.17761C12.7814 6.64562 10.0037 7.71269 8.42186 9.30393C7.32232 10.3897 6.89794 11.5691 6.39639 14.789C6.14562 16.3803 5.7791 18.7016 5.56691 19.9372C5.37401 21.1727 4.98821 23.6064 4.71814 25.3661C4.42879 27.1071 4.00441 29.8965 3.73434 31.5439C3.48357 33.1913 3.09777 35.6249 2.86628 36.9728C2.65409 38.302 2.249 40.7543 1.99823 42.4017C1.38094 46.3892 0.628621 51.1629 0.262107 53.3532C-0.162277 56.049 -0.065826 57.9772 0.51288 58.4078C0.590041 58.4639 0.802233 58.726 0.975845 58.9881C1.40023 59.6433 3.09777 60.7104 4.71814 61.3469L6.04917 61.8711H28.3293C53.2716 61.8711 51.0725 61.9834 54.3711 60.5232C57.3032 59.2127 58.75 57.6589 59.1744 55.3376C59.483 53.6902 60.3511 48.0741 60.3511 47.7932C60.3511 47.606 58.8464 47.5499 52.635 47.5499H44.9382L44.8225 48.1489C44.7646 48.4859 44.6296 49.347 44.5331 50.0584C44.4174 50.7698 44.2823 51.425 44.2245 51.5186C44.1666 51.5935 37.8394 51.6684 30.1426 51.6684C16.9674 51.6684 16.1765 51.6497 16.1958 51.3314C16.1958 51.1629 16.273 50.5826 16.3694 50.0771C16.5816 48.7854 17.8162 40.8292 18.7807 34.4455C19.4559 30.1211 20.1503 25.5533 20.6133 22.558C20.8062 21.2102 21.0762 19.4879 21.192 18.7203C21.3077 17.9528 21.4427 17.1291 21.5006 16.8857L21.5778 16.4739H35.5632C48.7577 16.4739 49.5486 16.4926 49.5486 16.7921C49.5486 17.1665 49.2206 19.3194 49.0663 19.9746L48.9699 20.4052H56.8403H64.7107L65.2701 16.8857C65.5787 14.9575 65.8295 12.6549 65.8488 11.775C65.8488 10.3148 65.8102 10.1089 65.2894 9.39753C64.3441 8.06838 61.8364 6.70178 59.3866 6.19633C58.2677 5.97169 18.3949 5.95297 16.5623 6.17761Z" fill="#F2F2F2"/>
<path d="M244.476 11.962C241.158 12.8044 239.248 15.9682 240.232 19.001C240.657 20.2927 241.853 21.6406 243.145 22.2771C243.955 22.6702 244.341 22.7451 245.923 22.7451C247.35 22.7451 247.91 22.6702 248.43 22.3894C249.742 21.6968 250.572 20.8918 251.15 19.7498C252.964 16.1554 250.417 12.093 246.212 11.8684C245.576 11.831 244.804 11.8684 244.476 11.962Z" fill="#F2F2F2"/>
<path d="M258.635 17.4099C258.365 17.4848 257.806 17.7656 257.381 18.0464C254.565 19.8436 254.777 23.5316 257.786 25.1229C260.718 26.6955 264.441 24.5987 264.441 21.4162C264.441 18.7391 261.355 16.6049 258.635 17.4099Z" fill="#F2F2F2"/>
<path d="M48.0632 22.9325C45.6133 23.4567 43.5107 25.0293 42.4111 27.2009C41.6974 28.605 41.2537 30.7392 41.5624 31.226C42.0832 32.0123 42.1411 32.0123 54.7569 31.9561C66.0031 31.8999 66.8711 31.8812 67.7778 31.563C70.7677 30.4584 72.8318 27.9498 73.044 25.1229C73.1212 23.9622 73.0826 23.7937 72.6389 23.2882L72.1566 22.7453L60.6983 22.7079C51.6319 22.6892 49.0084 22.7266 48.0632 22.9325Z" fill="#F2F2F2"/>
<path d="M268.473 23.9435C268.029 24.3929 267.914 24.6549 267.914 25.3102C267.914 26.2837 268.319 26.9015 269.187 27.2572C270.035 27.5942 270.749 27.4257 271.54 26.7143C272.254 26.0403 272.37 25.1979 271.829 24.3367C271.174 23.2321 269.418 23.0449 268.473 23.9435Z" fill="#F2F2F2"/>
<path d="M180.587 23.9809C178.986 24.2804 177.828 25.1977 177.442 26.5455C177.172 27.5189 177.211 28.0618 177.616 28.9229C179.024 31.9556 183.731 32.0679 185.255 29.1288C186.085 27.5377 185.814 26.0588 184.522 24.9543C183.5 24.0932 182.014 23.7188 180.587 23.9809Z" fill="#F2F2F2"/>
<path d="M217.373 41.5592V57.2844H220.749H224.125V41.5592V25.834H220.749H217.373V41.5592Z" fill="#F2F2F2"/>
<path d="M103.079 27.4439C99.8381 28.1366 97.1761 29.5593 94.8805 31.8057C93.4723 33.1723 93.0672 33.7152 92.2185 35.3813C90.9646 37.8524 90.5788 39.4811 90.5595 42.4015C90.5402 45.2282 90.926 46.8007 92.1992 49.3467C94.8612 54.6446 100.262 57.6585 107.072 57.6772C110.197 57.6772 112.705 57.1531 115.155 55.955C116.351 55.3746 118.222 53.9706 119.051 53.0533L119.591 52.4356L118.28 51.2375C117.566 50.5822 116.563 49.6837 116.061 49.2531L115.135 48.4481L114.113 49.3467C112.261 50.9941 109.965 51.8552 107.419 51.8552C102.5 51.8552 98.8736 49.0285 97.8705 44.442C97.5233 42.8133 97.5233 41.9896 97.8705 40.3609C98.8736 35.7557 102.404 32.9851 107.323 32.9664C110.023 32.9477 112.28 33.7901 114.209 35.5311L115.135 36.3735L117.334 34.3704C118.839 33.0038 119.514 32.2737 119.437 32.0865C119.379 31.9368 118.704 31.3003 117.952 30.6825C116.466 29.4657 113.843 28.1178 111.952 27.6124C110.274 27.1444 104.892 27.0508 103.079 27.4439Z" fill="#F2F2F2"/>
<path d="M190.753 42.4019V57.2844H194.321H197.89V51.8556V46.4267H204.931H211.972V43.7123V40.9979L204.989 40.9604L197.987 40.9043L197.929 37.0105L197.89 33.1354H205.896H213.901V30.3274V27.5194H202.327H190.753V42.4019Z" fill="#F2F2F2"/>
<path d="M129.101 34.3333C128.253 34.4643 126.96 34.7638 126.208 34.9885C124.742 35.4565 122.273 36.6546 122.273 36.8979C122.273 37.0851 124.356 40.9976 124.587 41.241C124.665 41.3346 125.07 41.1848 125.494 40.9227C126.536 40.2488 128.195 39.7059 130.008 39.4626C131.918 39.2005 133.827 39.4813 134.985 40.2114C135.891 40.773 136.74 42.177 136.74 43.113V43.7495L132.554 43.8618C128.04 43.9741 126.69 44.18 124.954 45.0412C123.565 45.7151 122.388 46.8383 121.867 47.9802C121.192 49.4404 121.212 51.9302 121.906 53.3529C122.562 54.7195 123.777 55.8801 125.224 56.5353C126.921 57.3215 128.195 57.5275 130.76 57.4339C133.596 57.3028 134.869 56.8723 136.316 55.4683L137.319 54.4948V55.8988V57.2841L140.463 57.2467L143.588 57.1905V49.7025C143.588 41.5592 143.55 41.1287 142.489 39.0133C141.408 36.8418 139.248 35.2506 136.451 34.5392C134.85 34.1273 131.03 34.015 129.101 34.3333ZM136.74 49.0285C136.74 50.5074 136.374 51.1814 135.062 52.1548C133.538 53.278 130.934 53.4465 129.294 52.5105C128.58 52.0986 128.349 51.7804 128.002 50.6946C127.828 50.1892 128.253 49.0285 128.754 48.5793C129.487 47.9241 130.374 47.7743 133.712 47.7556L136.74 47.7369V49.0285Z" fill="#F2F2F2"/>
<path d="M160.371 34.3144C158.808 34.6327 157.207 35.3815 156.243 36.2239L155.452 36.9166V35.681V34.4455H152.172H148.893V49.9836V65.5217H152.269H155.645V60.1676V54.8135L156.32 55.3751C158.056 56.8728 159.946 57.4719 162.782 57.4719C166.274 57.4719 168.762 56.5358 171 54.3829C173.295 52.1739 174.356 49.5717 174.375 46.0335C174.395 43.5624 174.125 42.252 173.199 40.3237C171.887 37.5531 169.321 35.4377 166.254 34.5578C164.827 34.1459 161.818 34.0149 160.371 34.3144ZM164.306 40.1553C167.47 41.7091 168.569 46.2207 166.582 49.4407C165.444 51.294 163.824 52.1177 161.412 52.0803C159.811 52.0803 158.557 51.5749 157.439 50.5078C156.32 49.4407 155.799 48.1864 155.683 46.3144C155.49 43.0008 157.072 40.511 159.85 39.7434C161.142 39.4064 163.149 39.5749 164.306 40.1553Z" fill="#F2F2F2"/>
<path d="M237.628 34.333C236.934 34.4828 235.834 34.801 235.178 35.0631C228.793 37.5904 226.015 44.8727 229.082 51.088C230.413 53.8025 233.403 56.1051 236.76 57.0225C238.457 57.4718 242.913 57.5841 244.765 57.2097C246.598 56.8353 249.106 55.6184 250.109 54.6075L250.9 53.8212L249.106 51.9679L247.312 50.1145L246.656 50.6013C246.309 50.8634 245.479 51.3314 244.862 51.6122C243.801 52.0989 243.511 52.1364 241.39 52.1364C239.229 52.1364 238.998 52.0989 238.014 51.6122C237.435 51.3127 236.625 50.7698 236.239 50.4141C235.583 49.7963 234.734 48.3922 234.734 47.9242C234.734 47.7932 237.763 47.737 243.608 47.737H252.481V45.9773C252.481 40.1364 249.356 35.9617 243.897 34.5389C242.296 34.1271 239.19 34.0148 237.628 34.333ZM242.431 39.4438C244.148 39.9679 245.556 41.503 246.038 43.3189L246.154 43.8057H240.367H234.58L234.773 43.0943C235.062 42.0459 235.815 40.8852 236.586 40.3236C238.11 39.2004 240.502 38.826 242.431 39.4438Z" fill="#F2F2F2"/>
<path d="M178.06 45.8085L178.118 57.1904H181.494H184.869L184.927 45.8085L184.966 34.4453H181.494H178.021L178.06 45.8085Z" fill="#F2F2F2"/>
<path d="M253.06 34.5393C253.06 34.5955 254.97 37.1414 257.323 40.1741C261.355 45.4158 261.567 45.7153 261.297 46.1084C261.143 46.3331 259.137 48.8977 256.841 51.8181C254.545 54.7385 252.674 57.1534 252.674 57.1908C252.674 57.247 254.314 57.2844 256.32 57.2844H259.966L262.609 53.8212C264.056 51.9117 265.329 50.3954 265.406 50.4515C265.502 50.5077 266.679 52.0615 268.029 53.9148L270.498 57.2844H274.337C277.346 57.2844 278.137 57.2283 278.022 57.0411C277.944 56.9287 275.919 54.3079 273.527 51.2378C269.476 46.0148 269.206 45.6217 269.457 45.2473C269.592 45.0226 271.463 42.6077 273.604 39.8746C275.745 37.1414 277.559 34.8014 277.636 34.6703C277.752 34.5019 276.999 34.4457 274.202 34.4457H270.614L268.28 37.4784C266.988 39.1632 265.83 40.6421 265.695 40.7731C265.522 40.9604 264.981 40.3613 263.014 37.7217L260.545 34.4457H256.802C254.738 34.4457 253.06 34.4831 253.06 34.5393Z" fill="#F2F2F2"/>
<path d="M41.4466 35.7371C38.7846 36.5421 36.9135 38.77 36.9135 41.185V42.4019H46.8479H56.7824L57.7276 41.9338C58.2484 41.6717 59.02 41.0727 59.4637 40.6046C60.814 39.1631 61.3734 36.7481 60.544 35.9431C60.1774 35.5874 59.9074 35.5686 51.0532 35.5874C46.0377 35.5874 41.7167 35.6622 41.4466 35.7371Z" fill="#F2F2F2"/>
</svg>
