<svg width="46" height="45" viewBox="0 0 46 45" fill="none" xmlns="http://www.w3.org/2000/svg">
<g clip-path="url(#clip0)">
<path d="M8.84306 44.4524C8.43092 44.4526 8.09671 44.1187 8.09644 43.7067C8.09644 43.7064 8.09644 43.7061 8.09644 43.7058V40.6567C8.09644 40.2443 8.43074 39.91 8.84306 39.91C9.25539 39.91 9.58969 40.2443 9.58969 40.6567V43.7057C9.58997 44.1179 9.25603 44.4521 8.84399 44.4524C8.84362 44.4524 8.84334 44.4524 8.84306 44.4524Z" fill="#686868"/>
<path d="M13.0695 44.7164H4.61565C4.20332 44.7164 3.86902 44.3821 3.86902 43.9698C3.86902 43.5574 4.20332 43.2231 4.61565 43.2231H13.0695C13.4819 43.2231 13.8162 43.5574 13.8162 43.9698C13.8162 44.3821 13.4819 44.7164 13.0695 44.7164Z" fill="#686868"/>
<path d="M36.9761 36.1153C36.564 36.1155 36.2298 35.7816 36.2295 35.3696C36.2295 35.3693 36.2295 35.369 36.2295 35.3687V27.4981H30.011C29.5989 27.4984 29.2647 27.1644 29.2644 26.7524C29.2644 26.7521 29.2644 26.7518 29.2644 26.7516V14.962C29.2644 14.5496 29.5987 14.2153 30.011 14.2153C30.4234 14.2153 30.7577 14.5496 30.7577 14.962V26.0048H36.9761C37.3883 26.0046 37.7225 26.3385 37.7227 26.7506V26.7514V35.3686C37.723 35.7808 37.3891 36.115 36.977 36.1153C36.9767 36.1153 36.9764 36.1153 36.9761 36.1153Z" fill="#686868"/>
<path d="M8.84306 36.1153C8.43092 36.1155 8.09671 35.7816 8.09644 35.3696C8.09644 35.3693 8.09644 35.369 8.09644 35.3687V26.7515C8.09616 26.3393 8.43009 26.0051 8.84214 26.0048H8.84297H15.0614V14.962C15.0614 14.5496 15.3957 14.2153 15.8081 14.2153C16.2204 14.2153 16.5547 14.5496 16.5547 14.962V26.7515C16.555 27.1636 16.221 27.4978 15.809 27.4981C15.8087 27.4981 15.8084 27.4981 15.8082 27.4981H9.5896V35.3687C9.58987 35.7809 9.25594 36.1151 8.84389 36.1154C8.84362 36.1153 8.84334 36.1153 8.84306 36.1153Z" fill="#686868"/>
<path d="M39.0828 7.58037C38.489 7.58222 37.8991 7.67449 37.3331 7.85414C36.0028 6.27861 34.052 5.36094 31.9901 5.34058C30.9205 5.34317 29.8666 5.59788 28.9139 6.08387C27.4293 2.5451 24.0053 0.207766 20.1689 0.11438C16.5726 0.189811 13.3165 2.25847 11.7202 5.48191C11.2774 5.38991 10.8265 5.34262 10.3742 5.34058C6.27046 5.34058 2.94373 9.01744 2.94373 13.5532C2.94373 18.0889 6.27046 21.7658 10.3742 21.7658H39.0826C42.6267 21.7658 45.4998 18.5903 45.4998 14.6732C45.4998 10.7561 42.6268 7.58037 39.0828 7.58037Z" fill="#FF6600"/>
<path d="M36.9764 44.8857C41.0388 44.8857 44.332 41.5925 44.332 37.5301C44.332 33.4678 41.0388 30.1746 36.9764 30.1746C32.9141 30.1746 29.6208 33.4678 29.6208 37.5301C29.6208 41.5925 32.9141 44.8857 36.9764 44.8857Z" fill="#D6D6D6"/>
<path d="M36.9764 39.1525C38.5883 39.1525 39.8951 37.8458 39.8951 36.2339C39.8951 34.6219 38.5883 33.3152 36.9764 33.3152C35.3645 33.3152 34.0577 34.6219 34.0577 36.2339C34.0577 37.8458 35.3645 39.1525 36.9764 39.1525Z" fill="#02C2FF"/>
<path d="M36.9763 41.0287C35.1881 40.9567 33.5128 41.9013 32.6489 43.4687C35.2246 45.3579 38.7281 45.3579 41.3038 43.4687C40.4399 41.9013 38.7646 40.9567 36.9763 41.0287Z" fill="#02C2FF"/>
<path d="M2.19974 31.0447H15.486C16.4248 31.0447 17.1858 31.8056 17.1858 32.7444V38.9574C17.1858 39.8962 16.4248 40.6572 15.486 40.6572H2.19974C1.26097 40.6572 0.5 39.8962 0.5 38.9574V32.7444C0.5 31.8056 1.26097 31.0447 2.19974 31.0447Z" fill="#D6D6D6"/>
</g>
<defs>
<clipPath id="clip0">
<rect width="45" height="45" fill="white" transform="translate(0.5)"/>
</clipPath>
</defs>
</svg>
