<svg width="45" height="45" viewBox="0 0 45 45" fill="none" xmlns="http://www.w3.org/2000/svg">
<g clip-path="url(#clip0)">
<path d="M36.0271 30.6506C35.6282 30.6508 35.3047 30.3277 35.3044 29.9288C35.3044 29.9285 35.3044 29.9282 35.3044 29.9279V27.3374H29.2857C28.8868 27.3376 28.5633 27.0144 28.563 26.6155C28.563 26.6153 28.563 26.615 28.563 26.6147V21.7893C28.563 21.3902 28.8865 21.0667 29.2857 21.0667C29.6847 21.0667 30.0083 21.3902 30.0083 21.7893V25.8921H36.0271C36.4259 25.8919 36.7494 26.2151 36.7497 26.6139V26.6148V29.928C36.7499 30.3269 36.4268 30.6504 36.0279 30.6506C36.0276 30.6506 36.0273 30.6506 36.0271 30.6506V30.6506Z" fill="#333333"/>
<path d="M8.79786 31.4925C8.39898 31.4927 8.07548 31.1696 8.0752 30.7707C8.0752 30.7704 8.0752 30.7701 8.0752 30.7698V26.6148C8.07501 26.2159 8.39814 25.8924 8.79701 25.8921H8.79786H14.8166V21.7893C14.8166 21.3902 15.1401 21.0667 15.5393 21.0667C15.9384 21.0667 16.2619 21.3902 16.2619 21.7893V26.6148C16.2621 27.0137 15.939 27.3372 15.5401 27.3375C15.5398 27.3375 15.5395 27.3375 15.5393 27.3375H9.52053V30.7699C9.52071 31.1688 9.19758 31.4923 8.79871 31.4925C8.79833 31.4925 8.79814 31.4925 8.79786 31.4925V31.4925Z" fill="#333333"/>
<path d="M38.1508 22.512H10.2799C5.916 22.512 2.36572 18.6224 2.36572 13.8406C2.36572 8.72514 6.42337 4.59409 11.2009 5.23132C12.946 2.12931 16.2015 0.181695 19.7601 0.11084C23.5033 0.170968 26.9001 2.31487 28.5649 5.66811C29.4048 5.3383 30.2991 5.16902 31.2013 5.16921C33.2475 5.17768 35.2008 6.02408 36.6062 7.51138C37.0844 7.39639 37.5744 7.33796 38.0663 7.33711C41.8896 7.33711 45.0003 10.7407 45.0003 14.9246C45.0003 19.0613 41.9588 22.4359 38.194 22.5107C38.1798 22.5114 38.1649 22.512 38.1508 22.512V22.512ZM10.2799 6.61445C6.71272 6.61445 3.81096 9.85637 3.81096 13.8406C3.81096 17.8249 6.71272 21.0668 10.2799 21.0668H38.0662C41.0928 21.0668 43.555 18.3111 43.555 14.9245C43.555 11.538 41.0928 8.78225 38.0662 8.78225C37.5649 8.78404 37.0669 8.86205 36.5891 9.01373C36.3158 9.09974 36.0175 9.0158 35.8291 8.79994C34.6806 7.42951 32.9894 6.63082 31.2013 6.61445C30.2791 6.61633 29.3703 6.83642 28.5494 7.25666C28.1924 7.4361 27.7575 7.29213 27.5781 6.93513C27.574 6.92713 27.5701 6.91904 27.5664 6.91085C26.254 3.73771 23.1929 1.63794 19.7601 1.55617C16.5499 1.63963 13.649 3.49109 12.2213 6.36754C12.071 6.6503 11.7525 6.80048 11.4387 6.73659C11.0575 6.65698 10.6693 6.61605 10.2799 6.61445V6.61445Z" fill="#333333"/>
<path d="M36.0271 44.8891C31.6961 44.8889 28.1854 41.3778 28.1855 37.0469C28.1857 32.7159 31.6969 29.2051 36.0278 29.2053C40.3588 29.2055 43.8695 32.7166 43.8693 37.0475C43.8644 41.3766 40.3561 44.8845 36.0271 44.8891ZM36.0271 30.6506C32.4943 30.6507 29.6306 33.5148 29.6308 37.0475C29.631 40.5803 32.495 43.4441 36.0278 43.4439C39.5603 43.4437 42.4239 40.58 42.4241 37.0475C42.4202 33.5163 39.5585 30.6545 36.0271 30.6506Z" fill="#333333"/>
<path d="M36.0272 39.3405C34.068 39.3405 32.4797 37.7523 32.4797 35.7931C32.4797 33.8339 34.068 32.2456 36.0272 32.2456C37.9864 32.2456 39.5746 33.8339 39.5746 35.7931C39.5725 37.7514 37.9855 39.3384 36.0272 39.3405ZM36.0272 33.6908C34.8661 33.6908 33.925 34.632 33.925 35.7931C33.925 36.9541 34.8661 37.8953 36.0272 37.8953C37.1883 37.8953 38.1294 36.9541 38.1294 35.7931C38.1283 34.6326 37.1878 33.692 36.0272 33.6908Z" fill="#333333"/>
<path d="M36.0272 44.8894C34.3673 44.8912 32.7503 44.362 31.4127 43.3792C31.1321 43.1741 31.0373 42.7982 31.1869 42.4844C32.7542 39.8111 36.1919 38.9143 38.8653 40.4816C39.6932 40.967 40.3828 41.6565 40.8682 42.4844C41.0179 42.7983 40.923 43.1741 40.6423 43.3792C39.3045 44.3622 37.6873 44.8913 36.0272 44.8894V44.8894ZM32.8227 42.5769C34.8076 43.7155 37.2475 43.7155 39.2324 42.5769C37.628 40.8069 34.8925 40.6726 33.1226 42.277C33.0178 42.372 32.9177 42.472 32.8227 42.5769Z" fill="#333333"/>
<path d="M15.2272 40.7964H2.36757C1.06057 40.7949 0.00141145 39.7358 0 38.4288V32.4156C0.00112916 31.1084 1.06038 30.0489 2.36757 30.0474H15.2272C16.5344 30.0489 17.5937 31.1084 17.5948 32.4156V38.4288C17.5933 39.7358 16.5342 40.7949 15.2272 40.7964ZM2.36757 31.4926C1.85823 31.4934 1.44561 31.9063 1.44524 32.4156V38.4288C1.44561 38.938 1.85832 39.3507 2.36757 39.3511H15.2272C15.7365 39.3507 16.1491 38.938 16.1496 38.4288V32.4156C16.1492 31.9063 15.7366 31.4934 15.2272 31.4926H2.36757Z" fill="#333333"/>
<path d="M8.79786 43.7476C8.39898 43.7478 8.07548 43.4246 8.0752 43.0258C8.0752 43.0255 8.0752 43.0252 8.0752 43.0249V40.0737C8.0752 39.6747 8.3987 39.3511 8.79786 39.3511C9.19702 39.3511 9.52052 39.6746 9.52052 40.0737V43.0249C9.52071 43.4238 9.19758 43.7473 8.79871 43.7476C8.79833 43.7476 8.79814 43.7476 8.79786 43.7476V43.7476Z" fill="#333333"/>
<path d="M12.8886 44.003H4.70631C4.30724 44.003 3.98364 43.6794 3.98364 43.2803C3.98364 42.8811 4.30715 42.5576 4.70631 42.5576H12.8887C13.2878 42.5576 13.6114 42.8811 13.6114 43.2803C13.6114 43.6794 13.2878 44.003 12.8886 44.003V44.003Z" fill="#333333"/>
</g>
<defs>
<clipPath id="clip0">
<rect width="45" height="45" fill="white"/>
</clipPath>
</defs>
</svg>
