<svg width="33" height="33" viewBox="0 0 33 33" fill="none" xmlns="http://www.w3.org/2000/svg">
<g clip-path="url(#clip0)">
<path d="M18.5625 26.8262C18.59 28.4624 19.3737 29.9886 20.625 30.9511V31.9686C20.625 32.5324 21.0925 32.9999 21.6562 32.9999H31.9688C32.5325 32.9999 33 32.5324 33 31.9686V25.6024C33 23.1549 32.0512 20.8587 30.3462 19.0987L27.7613 16.4724C27.5413 16.2524 27.2663 16.1424 26.9638 16.1562C26.6613 16.1699 26.3862 16.3212 26.2075 16.5549L24.6125 18.6174L21.78 22.3024L18.7825 26.1799C18.6312 26.3724 18.5625 26.5924 18.5625 26.8262Z" fill="#FFB74D"/>
<path d="M14.2175 26.1799L11.22 22.3024L8.3875 18.6174L6.7925 16.5549C6.61375 16.3212 6.33875 16.1699 6.03625 16.1562C5.73375 16.1424 5.45875 16.2524 5.23875 16.4724L2.65375 19.0987C0.94875 20.8587 0 23.1549 0 25.6024V31.9686C0 32.5324 0.4675 32.9999 1.03125 32.9999H11.3438C11.9075 32.9999 12.375 32.5324 12.375 31.9686V30.9511C13.6263 29.9886 14.41 28.4624 14.4375 26.8262C14.4375 26.5924 14.3688 26.3724 14.2175 26.1799Z" fill="#FFB74D"/>
<path d="M26.4688 27.5H6.53125C5.962 27.5 5.5 27.038 5.5 26.4688V2.40625C5.5 1.07938 6.57938 0 7.90625 0H25.0938C26.4206 0 27.5 1.07938 27.5 2.40625V26.4688C27.5 27.038 27.038 27.5 26.4688 27.5Z" fill="#ECEFF1"/>
<path d="M16.5 0H7.90625C6.57938 0 5.5 1.07938 5.5 2.40625V26.4688C5.5 27.038 5.962 27.5 6.53125 27.5H16.5V0Z" fill="#CDD0D2"/>
<path d="M10.6562 15.1251C10.3661 15.1251 10.0774 15.0028 9.87387 14.7649C9.50262 14.3331 9.5535 13.6814 9.98525 13.3101L14.7977 9.18514C15.1497 8.88539 15.6557 8.85377 16.0407 9.10952L17.3992 10.0156L21.2712 6.14639C21.6741 5.74352 22.3272 5.74352 22.7301 6.14639C23.133 6.54927 23.133 7.2024 22.7301 7.60527L18.2614 12.074C17.9149 12.4233 17.3704 12.4755 16.9606 12.2033L15.5485 11.2614L11.33 14.8776C11.1334 15.0426 10.8941 15.1251 10.6562 15.1251Z" fill="#FF6600"/>
<path d="M22.3437 10.9997C22.0756 10.9997 21.8116 10.8952 21.615 10.6972L18.1775 7.25975C17.8819 6.9655 17.7952 6.52138 17.9534 6.13638C18.1129 5.75138 18.4882 5.49976 18.9062 5.49976H22.3437C22.913 5.49976 23.375 5.96175 23.375 6.531V9.9685C23.375 10.3851 23.1233 10.7619 22.7383 10.9214C22.6105 10.9736 22.4771 10.9997 22.3437 10.9997Z" fill="#FF6600"/>
<path d="M19.8962 8.97876L17.5312 11.3438L15.9018 10.2575C15.6461 10.087 15.3064 10.1076 15.0727 10.307L9.87244 14.7648C10.0773 15.0026 10.3661 15.125 10.6562 15.125C10.8941 15.125 11.1333 15.0425 11.3272 14.8761L15.5457 11.2599L16.9578 12.2018C17.1338 12.3186 17.3346 12.375 17.5326 12.375C17.798 12.375 18.062 12.2733 18.26 12.0725L20.625 9.70888L19.8962 8.97876Z" fill="#E15A00"/>
<path d="M23.0725 5.80225L19.8962 8.97849L20.625 9.70861L21.615 10.6986C21.8116 10.8952 22.0756 10.9997 22.3437 10.9997C22.4771 10.9997 22.6105 10.9736 22.7384 10.9214C23.1234 10.7619 23.375 10.3851 23.375 9.96849V6.531C23.375 6.24637 23.2595 5.98787 23.0725 5.80225Z" fill="#E15A00"/>
<path d="M11.6737 18.9198C11.3987 18.3835 10.8762 18.0123 10.2712 17.9023C9.6525 17.806 9.02 17.9985 8.58 18.4248L8.3875 18.6173L3.83625 23.0173L0 26.5923V31.9685C0 32.5323 0.4675 32.9998 1.03125 32.9998H6.875V31.3264L8.965 29.631C9.57 28.8885 9.9 27.9948 9.9 27.046C9.9 26.2485 9.66625 25.4923 9.25375 24.846L11.22 22.3023L11.385 22.096C12.0862 21.1885 12.21 19.9373 11.6737 18.9198Z" fill="#FFCC80"/>
<path d="M21.6151 22.096L21.7801 22.3023L23.7463 24.846C23.3338 25.4923 23.1001 26.2485 23.1001 27.046C23.1001 27.9948 23.4301 28.8885 24.0351 29.631L26.1251 31.3264V32.9998H31.9688C32.5326 32.9998 33.0001 32.5323 33.0001 31.9685V26.5923L29.1638 23.0173L24.6126 18.6173L24.4201 18.4248C23.9801 17.9985 23.3476 17.806 22.7288 17.9023C22.1238 18.0123 21.6013 18.3835 21.3263 18.9198C20.7901 19.9373 20.9138 21.1885 21.6151 22.096Z" fill="#FFCC80"/>
</g>
<defs>
<clipPath id="clip0">
<rect width="33" height="33" fill="white"/>
</clipPath>
</defs>
</svg>
