<svg width="41" height="42" viewBox="0 0 41 42" fill="none" xmlns="http://www.w3.org/2000/svg">
<g clip-path="url(#clip0)">
<path d="M32.3746 25.7529C31.5666 24.0753 28.6914 21.7468 25.9086 19.4969C24.3574 18.243 22.8916 17.0574 21.9589 16.123L17.6881 11.8522C17.5278 11.6915 17.3103 11.6012 17.0833 11.6011H9.39582C9.00376 11.6012 8.66214 11.8681 8.56725 12.2485L6.00475 22.4985C5.92828 22.813 6.03606 23.1437 6.28318 23.3527C6.548 23.5765 7.06387 24.1198 7.62938 24.7091C8.38788 25.5035 9.17545 26.3252 9.70332 26.7694C12.8808 29.4293 16.7075 32.3061 17.4711 32.8083C18.3829 33.3863 19.4234 33.7303 20.5 33.8094C21.1941 33.8553 21.8818 33.6517 22.4389 33.2354C23.0662 33.4748 23.761 33.4674 24.383 33.2149C25.1584 32.9079 25.7917 32.3233 26.1597 31.5749C26.8883 31.7126 27.642 31.6038 28.3019 31.2657C28.9455 30.9619 29.4546 30.4315 29.7318 29.776C30.4495 29.7916 31.1475 29.5409 31.6913 29.0722C32.6666 28.2612 32.9503 26.883 32.3746 25.7529Z" fill="#FFE082"/>
<path d="M34.9764 24.1401L31.5597 14.049C31.475 13.7991 31.2795 13.6023 31.0302 13.516C30.996 13.504 27.6272 12.3202 24.2652 10.8219C20.3462 9.06917 18.1989 10.224 15.129 13.2956C13.9605 14.4624 12.3734 16.8284 12.7852 18.5624C12.9625 19.3013 13.5228 19.8883 14.2526 20.0999C16.1212 20.7574 18.1968 20.0464 19.27 18.3814C19.7163 18.314 20.1492 18.1768 20.5529 17.9748C20.7237 17.9014 20.91 17.8142 21.1662 17.7117L31.9458 25.8707C32.2366 26.135 32.6702 26.1667 32.9964 25.9476L34.6399 25.1242C34.9618 24.91 35.0998 24.5064 34.9764 24.1401Z" fill="#FFC107"/>
<path d="M9.9835 10.1266C8.51775 8.73939 2.665 8.29007 0.903684 8.18421C0.670256 8.17756 0.442995 8.26004 0.268184 8.41484C0.0964965 8.57667 -0.000558132 8.80241 2.41471e-06 9.0384V24.4134C2.41471e-06 24.8851 0.382456 25.2676 0.854196 25.2676H5.9792C6.34932 25.2681 6.67764 25.0301 6.79239 24.6782C8.31243 20.1584 9.46868 15.5242 10.25 10.8201C10.2716 10.5604 10.1735 10.305 9.9835 10.1266Z" fill="#2D9CDB"/>
<path d="M40.1458 9.89256C36.5303 9.76299 32.9263 10.3721 29.5541 11.6829C29.1273 11.8837 28.9441 12.3926 29.1449 12.8194C29.1589 12.8492 29.1746 12.8781 29.1919 12.9061C31.1397 17.277 32.8087 21.767 34.1888 26.349C34.291 26.7194 34.6279 26.9759 35.0122 26.9759H40.1372C40.609 26.9806 40.9952 26.602 40.9999 26.1303C40.9999 26.1275 41 26.1247 41 26.1218V10.7468C41 10.275 40.6175 9.89256 40.1458 9.89256Z" fill="#FF6600"/>
</g>
<defs>
<clipPath id="clip0">
<rect width="41" height="41" fill="white" transform="translate(0 0.5)"/>
</clipPath>
</defs>
</svg>
