<svg width="25" height="25" viewBox="0 0 25 25" fill="none" xmlns="http://www.w3.org/2000/svg">
<g clip-path="url(#clip0)">
<path d="M4.16406 20C3.50102 20 2.86514 19.7366 2.3963 19.2678C1.92745 18.7989 1.66406 18.163 1.66406 17.5V12.5C1.66406 12.2783 1.75213 12.0657 1.9089 11.9089C2.06567 11.7521 2.2783 11.6641 2.5 11.6641H4.16406C4.8271 11.6641 5.46299 11.9275 5.93183 12.3963C6.40067 12.8651 6.66406 13.501 6.66406 14.1641V17.5C6.66406 18.163 6.40067 18.7989 5.93183 19.2678C5.46299 19.7366 4.8271 20 4.16406 20ZM3.32813 13.3281V17.5C3.34818 17.7068 3.44451 17.8986 3.59832 18.0383C3.75214 18.1779 3.95243 18.2552 4.16016 18.2552C4.36789 18.2552 4.56818 18.1779 4.72199 18.0383C4.87581 17.8986 4.97213 17.7068 4.99219 17.5V14.1641C4.99219 13.9424 4.90412 13.7297 4.74735 13.573C4.59058 13.4162 4.37795 13.3281 4.15625 13.3281H3.32813Z" fill="#F2F2F2"/>
<path d="M2.63278 9.99246H2.49997C2.28143 9.95608 2.08626 9.83444 1.95735 9.65426C1.82844 9.47408 1.77633 9.2501 1.81247 9.03152C2.14383 7.07078 3.00834 5.23904 4.31133 3.73688C5.61433 2.23472 7.30555 1.12008 9.1998 0.515016C11.094 -0.0900459 13.1183 -0.162192 15.0508 0.306477C16.9833 0.775147 18.7496 1.76656 20.1562 3.17214C21.7495 4.75869 22.8043 6.80549 23.1718 9.02371C23.2027 9.1365 23.2095 9.2545 23.1918 9.37009C23.1742 9.48568 23.1325 9.59629 23.0695 9.69476C23.0064 9.79324 22.9234 9.87739 22.8258 9.94179C22.7283 10.0062 22.6182 10.0494 22.5029 10.0686C22.3876 10.0878 22.2695 10.0826 22.1563 10.0534C22.0431 10.0241 21.9373 9.97144 21.8457 9.89873C21.7541 9.82602 21.6788 9.73492 21.6246 9.63129C21.5705 9.52767 21.5386 9.41383 21.5312 9.29714C21.1694 7.16269 20.0636 5.22527 18.4098 3.82822C16.756 2.43118 14.661 1.66474 12.4961 1.66474C10.3312 1.66474 8.23616 2.43118 6.58236 3.82822C4.92855 5.22527 3.82274 7.16269 3.4609 9.29714C3.42759 9.49235 3.32606 9.66939 3.17441 9.79673C3.02275 9.92407 2.83081 9.99343 2.63278 9.99246Z" fill="#F2F2F2"/>
<path d="M9.06238 5.00019C8.88048 4.99373 8.70565 4.92807 8.56446 4.8132C8.42327 4.69832 8.32343 4.54049 8.28012 4.3637C8.2368 4.18691 8.25238 4.00081 8.32447 3.83367C8.39657 3.66654 8.52125 3.5275 8.67957 3.43769C9.86287 2.83966 11.1701 2.52808 12.496 2.52808C13.8218 2.52808 15.1291 2.83966 16.3124 3.43769C16.414 3.48629 16.5047 3.55492 16.5791 3.63946C16.6535 3.72399 16.7101 3.8227 16.7454 3.92964C16.7807 4.03658 16.7941 4.14956 16.7847 4.26179C16.7752 4.37402 16.7432 4.48319 16.6905 4.58274C16.6379 4.68229 16.5656 4.77016 16.4781 4.8411C16.3907 4.91203 16.2898 4.96456 16.1815 4.99552C16.0732 5.02648 15.9598 5.03524 15.848 5.02128C15.7362 5.00731 15.6285 4.97091 15.5311 4.91425C14.587 4.43026 13.5413 4.17783 12.4804 4.17783C11.4194 4.17783 10.3737 4.43026 9.42957 4.91425C9.31541 4.97075 9.18976 5.00016 9.06238 5.00019Z" fill="#F2F2F2"/>
<path d="M22.5076 11.6641H20.8358C20.1727 11.6641 19.5368 11.9275 19.068 12.3963C18.5991 12.8651 18.3358 13.501 18.3358 14.1641V17.5C18.3358 18.163 18.5991 18.7989 19.068 19.2678C19.5368 19.7366 20.1727 20 20.8358 20C21.0798 19.9967 21.322 19.9572 21.5545 19.8828C21.403 20.3979 21.0893 20.8503 20.6599 21.1727C20.2306 21.495 19.7086 21.6701 19.1717 21.6719H14.8436C14.6473 21.1156 14.2606 20.6467 13.7519 20.3481C13.2433 20.0494 12.6454 19.9402 12.064 20.0398C11.4826 20.1394 10.9552 20.4413 10.5749 20.8923C10.1947 21.3432 9.98608 21.914 9.98608 22.5039C9.98608 23.0938 10.1947 23.6646 10.5749 24.1156C10.9552 24.5665 11.4826 24.8684 12.064 24.968C12.6454 25.0676 13.2433 24.9584 13.7519 24.6597C14.2606 24.3611 14.6473 23.8922 14.8436 23.3359H19.1717C20.2754 23.3339 21.3334 22.8945 22.1138 22.114C22.8943 21.3336 23.3337 20.2756 23.3358 19.1719V12.5C23.3358 12.2796 23.2488 12.0682 23.0937 11.9116C22.9386 11.7551 22.728 11.6661 22.5076 11.6641ZM12.4998 23.3359C12.3345 23.3359 12.1729 23.2869 12.0354 23.1951C11.8979 23.1032 11.7908 22.9726 11.7275 22.8199C11.6642 22.6672 11.6477 22.4991 11.6799 22.3369C11.7122 22.1748 11.7918 22.0258 11.9087 21.9089C12.0256 21.792 12.1746 21.7124 12.3367 21.6801C12.4989 21.6479 12.667 21.6644 12.8197 21.7277C12.9725 21.791 13.103 21.8981 13.1949 22.0356C13.2867 22.173 13.3358 22.3347 13.3358 22.5C13.3358 22.7217 13.2477 22.9343 13.0909 23.0911C12.9341 23.2479 12.7215 23.3359 12.4998 23.3359ZM21.6717 17.5C21.6516 17.7068 21.5553 17.8986 21.4015 18.0383C21.2477 18.1779 21.0474 18.2552 20.8397 18.2552C20.6319 18.2552 20.4316 18.1779 20.2778 18.0383C20.124 17.8986 20.0277 17.7068 20.0076 17.5V14.1641C20.0076 13.9424 20.0957 13.7297 20.2525 13.573C20.4092 13.4162 20.6219 13.3281 20.8436 13.3281H21.6795L21.6717 17.5Z" fill="#F2F2F2"/>
</g>
<defs>
<clipPath id="clip0">
<rect width="25" height="25" fill="white"/>
</clipPath>
</defs>
</svg>
