<svg width="45" height="45" viewBox="0 0 45 45" fill="none" xmlns="http://www.w3.org/2000/svg">
<path d="M26.7188 3.51562V23.2031H23.9062V13.3594H20.3906C20.0177 13.3594 19.66 13.2112 19.3963 12.9475C19.1325 12.6838 18.9844 12.3261 18.9844 11.9531C18.9844 11.5802 19.1325 11.2225 19.3963 10.9588C19.66 10.695 20.0177 10.5469 20.3906 10.5469H21.0938C21.4667 10.5469 21.8244 10.3987 22.0881 10.135C22.3518 9.87127 22.5 9.51359 22.5 9.14062C22.5 8.76766 22.3518 8.40998 22.0881 8.14626C21.8244 7.88253 21.4667 7.73438 21.0938 7.73438H18.2812C17.9083 7.73438 17.5506 7.58622 17.2869 7.32249C17.0232 7.05877 16.875 6.70109 16.875 6.32812C16.875 5.95516 17.0232 5.59748 17.2869 5.33376C17.5506 5.07003 17.9083 4.92188 18.2812 4.92188H23.9062V3.51562C23.9062 3.14266 24.0544 2.78498 24.3181 2.52126C24.5819 2.25753 24.9395 2.10938 25.3125 2.10938C25.6855 2.10938 26.0431 2.25753 26.3069 2.52126C26.5706 2.78498 26.7188 3.14266 26.7188 3.51562V3.51562Z" fill="#EF5249"/>
<path d="M42.2164 11.0997L30.6702 22.6468L28.2954 25.0216L26.3064 23.0327L33.2673 16.0717L30.7818 13.5862C30.648 13.4563 30.5414 13.3012 30.4682 13.1298C30.3949 12.9584 30.3565 12.7741 30.3551 12.5877C30.3537 12.4014 30.3893 12.2165 30.46 12.044C30.5307 11.8716 30.6349 11.7148 30.7667 11.583C30.8985 11.4512 31.0552 11.3469 31.2276 11.2761C31.4001 11.2054 31.5849 11.1696 31.7713 11.1709C31.9577 11.1723 32.1419 11.2106 32.3134 11.2838C32.4848 11.357 32.64 11.4635 32.7699 11.5972L33.2673 12.0947C33.3979 12.2253 33.553 12.3289 33.7236 12.3995C33.8942 12.4702 34.0771 12.5066 34.2618 12.5066C34.4465 12.5066 34.6294 12.4702 34.8 12.3995C34.9707 12.3289 35.1257 12.2253 35.2563 12.0947C35.3869 11.9641 35.4905 11.809 35.5612 11.6384C35.6318 11.4678 35.6682 11.2849 35.6682 11.1002C35.6682 10.9155 35.6318 10.7326 35.5612 10.562C35.4905 10.3913 35.3869 10.2363 35.2563 10.1057L33.2673 8.11673C33.1336 7.98684 33.0271 7.83166 32.9539 7.66023C32.8808 7.48879 32.8424 7.30452 32.8411 7.11812C32.8398 6.93172 32.8755 6.74693 32.9462 6.57447C33.017 6.40201 33.1213 6.24534 33.2531 6.11357C33.385 5.98179 33.5417 5.87754 33.7142 5.80687C33.8867 5.73621 34.0715 5.70054 34.2579 5.70194C34.4443 5.70335 34.6285 5.74179 34.7999 5.81505C34.9713 5.8883 35.1265 5.9949 35.2563 6.12865L39.2334 10.1057L40.2283 9.11166C40.4924 8.85042 40.8492 8.70436 41.2207 8.70539C41.5922 8.70642 41.9482 8.85445 42.2109 9.11714C42.4736 9.37983 42.6216 9.73581 42.6226 10.1073C42.6236 10.4788 42.4776 10.8356 42.2164 11.0997V11.0997Z" fill="#88BF40"/>
<path d="M26.7188 19.8439V23.2031H23.9062V19.8439C24.8321 19.6354 25.7929 19.6354 26.7188 19.8439V19.8439Z" fill="#BE382D"/>
<path d="M30.6702 22.6467L28.2954 25.0215L26.3064 23.0325L28.6812 20.6577C29.4844 21.1638 30.164 21.8435 30.6702 22.6467V22.6467Z" fill="#7CA540"/>
<path d="M28.7929 22.5351C28.0433 21.7856 27.0718 21.298 26.0228 21.1448C24.9739 20.9916 23.9035 21.181 22.9708 21.6849L10.3968 9.11133C10.1331 8.84761 9.77544 8.69946 9.40249 8.69946C9.02954 8.69946 8.67186 8.84761 8.40814 9.11133C8.14443 9.37505 7.99628 9.73272 7.99628 10.1057C7.99628 10.4786 8.14443 10.8363 8.40814 11.1L9.40254 12.0944L5.42505 16.0719C5.16133 16.3356 5.01318 16.6933 5.01318 17.0663C5.01318 17.4392 5.16133 17.7969 5.42505 18.0606C5.68877 18.3243 6.04645 18.4725 6.4194 18.4725C6.79235 18.4725 7.15003 18.3243 7.41375 18.0606L9.40254 16.0719C9.6668 15.8108 10.0236 15.6649 10.3951 15.6661C10.7666 15.6672 11.1225 15.8153 11.3852 16.0779C11.6479 16.3406 11.796 16.6966 11.7971 17.068C11.7982 17.4395 11.6523 17.7963 11.3912 18.0606L10.894 18.5578C10.7635 18.6884 10.6599 18.8434 10.5892 19.014C10.5185 19.1847 10.4821 19.3675 10.4821 19.5522C10.4821 19.7369 10.5185 19.9197 10.5892 20.0904C10.6599 20.261 10.7635 20.416 10.894 20.5466C11.0246 20.6772 11.1797 20.7808 11.3503 20.8514C11.5209 20.9221 11.7038 20.9585 11.8884 20.9585C12.0731 20.9585 12.256 20.9221 12.4266 20.8514C12.5972 20.7808 12.7522 20.6772 12.8828 20.5466L15.3687 18.0606L20.9819 23.6738C20.4779 24.6065 20.2885 25.6769 20.4416 26.7259C20.5948 27.7749 21.0824 28.7464 21.8319 29.4961C22.289 29.9532 22.8316 30.3157 23.4288 30.5631C24.026 30.8105 24.666 30.9378 25.3124 30.9378C25.9588 30.9378 26.5989 30.8105 27.196 30.5631C27.7932 30.3157 28.3358 29.9532 28.7929 29.4961C29.25 29.039 29.6126 28.4964 29.8599 27.8992C30.1073 27.302 30.2346 26.662 30.2346 26.0156C30.2346 25.3692 30.1073 24.7291 29.8599 24.132C29.6126 23.5348 29.25 22.9922 28.7929 22.5351V22.5351ZM25.3124 28.125C24.753 28.125 24.2164 27.9027 23.8209 27.5071C23.4253 27.1116 23.203 26.575 23.203 26.0156C23.203 25.4561 23.4253 24.9196 23.8209 24.524C24.2164 24.1285 24.753 23.9062 25.3124 23.9062C25.8719 23.9062 26.4084 24.1285 26.804 24.524C27.1995 24.9196 27.4218 25.4561 27.4218 26.0156C27.4218 26.575 27.1995 27.1116 26.804 27.5071C26.4084 27.9027 25.8719 28.125 25.3124 28.125Z" fill="#FFC119"/>
<path d="M13.3594 39.4598L19.5768 42.0419C22.2743 43.1405 25.2883 43.1738 28.0093 42.135L38.871 37.9934C39.1043 37.9021 39.3173 37.7656 39.4976 37.5918C39.678 37.4179 39.8222 37.2102 39.922 36.9804C40.0217 36.7506 40.0751 36.5034 40.079 36.2529C40.0829 36.0024 40.0372 35.7537 39.9446 35.5209C39.8559 35.2897 39.7217 35.0787 39.5499 34.9003C39.3781 34.722 39.1723 34.5799 38.9446 34.4827C38.7168 34.3854 38.4719 34.3348 38.2243 34.334C37.9767 34.3332 37.7314 34.3821 37.503 34.4778L31.6246 36.9739C31.1712 37.1664 30.6836 37.2656 30.191 37.2656H30.2344C30.7006 37.2656 31.1477 37.0804 31.4773 36.7508C31.807 36.4211 31.9922 35.974 31.9922 35.5078C31.9922 35.0416 31.807 34.5945 31.4773 34.2649C31.1477 33.9352 30.7006 33.75 30.2344 33.75H24.7802C24.1194 33.75 23.4676 33.5961 22.8765 33.3006C20.6932 32.2089 18.2858 31.6406 15.8447 31.6406H11.25V39.375L13.3594 39.4598Z" fill="#F5BE9A"/>
<path d="M2.10938 30.9375H13.3594V40.7812H2.10938V30.9375Z" fill="#0093BA"/>
<path d="M9.84375 37.2656H11.25V38.6719H9.84375V37.2656Z" fill="#7ECCE6"/>
<path d="M29.4879 36.5625H22.5C22.1117 36.5625 21.7969 36.8773 21.7969 37.2656C21.7969 37.654 22.1117 37.9688 22.5 37.9688H29.4879C29.8762 37.9688 30.191 37.654 30.191 37.2656C30.191 36.8773 29.8762 36.5625 29.4879 36.5625Z" fill="#EC917F"/>
<path d="M35.3 20.8434L41.8722 14.2712L42.8664 15.2654L36.2943 21.8376L35.3 20.8434Z" fill="#CCDCE5"/>
<path d="M33.4353 22.7073L34.4077 21.7349L35.4019 22.7291L34.4295 23.7015L33.4353 22.7073Z" fill="#CCDCE5"/>
</svg>
