<svg width="44" height="45" viewBox="0 0 44 45" fill="none" xmlns="http://www.w3.org/2000/svg">
<path d="M24.7489 29.2489C25.3422 29.2489 25.9222 29.073 26.4155 28.7433C26.9089 28.4137 27.2934 27.9452 27.5204 27.397C27.7475 26.8489 27.8069 26.2457 27.6911 25.6638C27.5754 25.0819 27.2897 24.5473 26.8701 24.1278C26.4506 23.7083 25.9161 23.4225 25.3341 23.3068C24.7522 23.191 24.1491 23.2504 23.6009 23.4775C23.0527 23.7046 22.5842 24.0891 22.2546 24.5824C21.925 25.0757 21.749 25.6557 21.749 26.249C21.7499 27.0444 22.0663 27.8069 22.6287 28.3693C23.191 28.9317 23.9536 29.248 24.7489 29.2489ZM24.7489 24.7491C25.0456 24.7491 25.3356 24.8371 25.5822 25.0019C25.8289 25.1667 26.0211 25.4009 26.1347 25.675C26.2482 25.9491 26.2779 26.2507 26.22 26.5416C26.1621 26.8326 26.0193 27.0999 25.8095 27.3096C25.5997 27.5194 25.3325 27.6623 25.0415 27.7201C24.7506 27.778 24.449 27.7483 24.1749 27.6348C23.9008 27.5213 23.6666 27.329 23.5017 27.0823C23.3369 26.8357 23.249 26.5457 23.249 26.249C23.2494 25.8514 23.4076 25.4701 23.6888 25.1889C23.97 24.9077 24.3512 24.7496 24.7489 24.7491Z" fill="#4F4F4F"/>
<path d="M17.2494 7.49969H20.2493C20.4482 7.49969 20.639 7.5787 20.7796 7.71935C20.9202 7.85999 20.9993 8.05075 20.9993 8.24966C20.9993 8.44856 20.9202 8.63932 20.7796 8.77996C20.639 8.92061 20.4482 8.99963 20.2493 8.99963H19.4993C18.9026 8.99963 18.3303 9.23667 17.9084 9.65861C17.4865 10.0805 17.2494 10.6528 17.2494 11.2495C17.2494 11.8462 17.4865 12.4185 17.9084 12.8405C18.3303 13.2624 18.9026 13.4994 19.4993 13.4994H22.4992V19.0902H23.9991V12.7495C23.9991 12.5506 23.9201 12.3598 23.7795 12.2192C23.6388 12.0785 23.4481 11.9995 23.2492 11.9995H19.4993C19.3004 11.9995 19.1097 11.9205 18.969 11.7798C18.8284 11.6392 18.7494 11.4484 18.7494 11.2495C18.7494 11.0506 18.8284 10.8599 18.969 10.7192C19.1097 10.5786 19.3004 10.4996 19.4993 10.4996H20.2493C20.846 10.4996 21.4183 10.2625 21.8402 9.84058C22.2622 9.41864 22.4992 8.84637 22.4992 8.24966C22.4992 7.65294 22.2622 7.08067 21.8402 6.65873C21.4183 6.23679 20.846 5.99975 20.2493 5.99975H17.2494C17.0505 5.99975 16.8598 5.92074 16.7191 5.78009C16.5785 5.63944 16.4994 5.44869 16.4994 5.24978C16.4994 5.05088 16.5785 4.86012 16.7191 4.71947C16.8598 4.57883 17.0505 4.49981 17.2494 4.49981H23.2492C23.4481 4.49981 23.6388 4.4208 23.7795 4.28015C23.9201 4.13951 23.9991 3.94875 23.9991 3.74984V2.24991C23.9991 2.051 24.0782 1.86024 24.2188 1.7196C24.3594 1.57895 24.5502 1.49994 24.7491 1.49994C24.948 1.49994 25.1388 1.57895 25.2794 1.7196C25.4201 1.86024 25.4991 2.051 25.4991 2.24991V19.0902H26.999V2.24991C26.999 1.65319 26.762 1.08092 26.34 0.658982C25.9181 0.237043 25.3458 0 24.7491 0C24.1524 0 23.5801 0.237043 23.1582 0.658982C22.7362 1.08092 22.4992 1.65319 22.4992 2.24991V2.99988H17.2494C16.6527 2.99988 16.0804 3.23692 15.6585 3.65886C15.2366 4.0808 14.9995 4.65307 14.9995 5.24978C14.9995 5.84649 15.2366 6.41877 15.6585 6.84071C16.0804 7.26264 16.6527 7.49969 17.2494 7.49969Z" fill="#4F4F4F"/>
<path d="M4.5974 18.9533C4.89298 18.9541 5.18577 18.8963 5.45885 18.7831C5.73192 18.67 5.97985 18.5038 6.18827 18.2943L8.30946 16.1731C8.37895 16.1027 8.46165 16.0468 8.55282 16.0086C8.64399 15.9703 8.74183 15.9505 8.8407 15.9502C8.93957 15.9499 9.03752 15.9691 9.12892 16.0068C9.22033 16.0445 9.30338 16.0999 9.37329 16.1698C9.44321 16.2397 9.49861 16.3227 9.53631 16.4141C9.57401 16.5055 9.59327 16.6035 9.59297 16.7024C9.59268 16.8012 9.57283 16.8991 9.53459 16.9902C9.49634 17.0814 9.44044 17.1641 9.37011 17.2336L8.83979 17.7639C8.62993 17.9727 8.46332 18.2207 8.3495 18.4939C8.23567 18.7672 8.17688 19.0601 8.17647 19.3561C8.17607 19.6521 8.23407 19.9452 8.34715 20.2188C8.46023 20.4923 8.62617 20.7408 8.83545 20.9501C9.04474 21.1594 9.29327 21.3253 9.56679 21.4384C9.84031 21.5515 10.1335 21.6095 10.4294 21.6091C10.7254 21.6087 11.0184 21.5499 11.2916 21.4361C11.5648 21.3222 11.8129 21.1556 12.0216 20.9458L14.1429 18.8242L19.2244 23.9057C18.7635 25.0072 18.6393 26.2206 18.8675 27.3927C19.0957 28.5647 19.666 29.6429 20.5066 30.491C21.6318 31.6162 23.1578 32.2483 24.7491 32.2483C26.3403 32.2483 27.8664 31.6162 28.9915 30.491C30.1167 29.3658 30.7488 27.8398 30.7488 26.2485C30.7488 24.6573 30.1167 23.1312 28.9915 22.006C28.1434 21.1655 27.0653 20.5952 25.8932 20.367C24.7212 20.1388 23.5078 20.263 22.4063 20.7239L9.37011 7.68811C8.94777 7.26807 8.37611 7.03264 7.78046 7.03345C7.18481 7.03426 6.61378 7.27124 6.19259 7.69243C5.7714 8.11362 5.53442 8.68464 5.53361 9.28029C5.5328 9.87595 5.76823 10.4476 6.18827 10.8699L6.71859 11.4003L3.00625 15.1126C2.69163 15.4273 2.47739 15.8282 2.39061 16.2646C2.30383 16.7011 2.34842 17.1534 2.51873 17.5645C2.68904 17.9756 2.97743 18.327 3.34743 18.5742C3.71743 18.8214 4.15242 18.9533 4.5974 18.9533ZM4.06699 16.1731L8.30946 11.9306C8.37911 11.8609 8.43436 11.7783 8.47205 11.6873C8.50974 11.5963 8.52914 11.4988 8.52914 11.4003C8.52914 11.3018 8.50974 11.2042 8.47205 11.1133C8.43436 11.0223 8.37911 10.9396 8.30946 10.8699L7.24892 9.8094C7.17927 9.73975 7.12403 9.65708 7.08634 9.56608C7.04865 9.47509 7.02925 9.37756 7.02925 9.27907C7.02925 9.18058 7.04865 9.08306 7.08634 8.99207C7.12403 8.90107 7.17927 8.8184 7.24892 8.74875C7.31856 8.67911 7.40124 8.62387 7.49223 8.58618C7.58322 8.54849 7.68075 8.52909 7.77924 8.52909C7.87773 8.52909 7.97525 8.54849 8.06625 8.58618C8.15724 8.62387 8.23992 8.67911 8.30956 8.74875L21.7211 22.1602C21.8353 22.2744 21.9834 22.3487 22.1433 22.372C22.3031 22.3953 22.4663 22.3663 22.6084 22.2894C23.5592 21.7755 24.6632 21.6209 25.7186 21.854C26.774 22.0871 27.7103 22.6923 28.3562 23.5589C29.002 24.4255 29.3144 25.4957 29.2362 26.5737C29.1579 27.6517 28.6943 28.6655 27.93 29.4298C27.1658 30.194 26.1519 30.6577 25.0739 30.7359C23.9959 30.8142 22.9258 30.5018 22.0592 29.8559C21.1925 29.21 20.5874 28.2738 20.3543 27.2184C20.1212 26.163 20.2757 25.0589 20.7897 24.1081C20.8666 23.966 20.8956 23.8029 20.8723 23.643C20.849 23.4831 20.7747 23.335 20.6604 23.2208L14.6732 17.2336C14.6036 17.164 14.5209 17.1087 14.4299 17.071C14.3389 17.0333 14.2414 17.0139 14.1429 17.0139C14.0444 17.0139 13.9469 17.0333 13.8559 17.071C13.7649 17.1087 13.6822 17.164 13.6126 17.2336L10.9611 19.8852C10.8204 20.0259 10.6296 20.1049 10.4306 20.1048C10.2317 20.1048 10.0409 20.0257 9.90024 19.885C9.75959 19.7443 9.6806 19.5535 9.68063 19.3546C9.68067 19.1556 9.75973 18.9649 9.90043 18.8242L10.4308 18.2939C10.6406 18.0852 10.8072 17.8371 10.921 17.5639C11.0349 17.2907 11.0937 16.9977 11.0941 16.7017C11.0945 16.4057 11.0365 16.1126 10.9234 15.8391C10.8103 15.5655 10.6444 15.317 10.4351 15.1077C10.2258 14.8984 9.97727 14.7325 9.70375 14.6194C9.43022 14.5063 9.13708 14.4483 8.8411 14.4487C8.54512 14.4491 8.25214 14.5079 7.97892 14.6218C7.70571 14.7356 7.45763 14.9022 7.24892 15.112L5.128 17.2336C4.98737 17.3743 4.7966 17.4534 4.59766 17.4534C4.39873 17.4535 4.20792 17.3745 4.06722 17.2339C3.92652 17.0932 3.84745 16.9024 3.84741 16.7035C3.84736 16.5046 3.92635 16.3138 4.06699 16.1731Z" fill="#4F4F4F"/>
<path d="M29.2527 20.6846L33.7642 16.1731C33.8338 16.1035 33.8891 16.0208 33.9268 15.9298C33.9645 15.8388 33.9839 15.7413 33.9839 15.6428C33.9839 15.5443 33.9645 15.4468 33.9268 15.3558C33.8891 15.2648 33.8338 15.1821 33.7642 15.1125L31.1126 12.4609C31.0429 12.3913 30.9877 12.3086 30.95 12.2176C30.9123 12.1265 30.8929 12.029 30.893 11.9305C30.893 11.832 30.9124 11.7344 30.9501 11.6434C30.9878 11.5524 31.0431 11.4698 31.1128 11.4001C31.2535 11.2595 31.4443 11.1805 31.6432 11.1805C31.7417 11.1805 31.8393 11.1999 31.9303 11.2376C32.0213 11.2754 32.104 11.3306 32.1736 11.4003L32.7039 11.9306C33.1262 12.3507 33.6979 12.5861 34.2936 12.5853C34.8892 12.5845 35.4602 12.3475 35.8814 11.9263C36.3026 11.5051 36.5396 10.9341 36.5404 10.3384C36.5412 9.74278 36.3058 9.17111 35.8858 8.74878L33.7642 6.62787C33.6945 6.55823 33.6392 6.47556 33.6015 6.38456C33.5638 6.29356 33.5444 6.19603 33.5444 6.09753C33.5443 5.99902 33.5637 5.90148 33.6014 5.81047C33.6391 5.71946 33.6943 5.63675 33.7639 5.56709C33.8336 5.49742 33.9163 5.44215 34.0073 5.40443C34.0983 5.36672 34.1958 5.3473 34.2943 5.34727C34.3928 5.34725 34.4903 5.36663 34.5813 5.40431C34.6724 5.44198 34.7551 5.49722 34.8247 5.56685L39.0672 9.80933C39.1369 9.87898 39.2195 9.93422 39.3105 9.97191C39.4015 10.0096 39.499 10.029 39.5975 10.029C39.696 10.029 39.7935 10.0096 39.8845 9.97191C39.9755 9.93422 40.0582 9.87898 40.1279 9.80933L41.1884 8.74878C41.258 8.67914 41.3407 8.6239 41.4317 8.5862C41.5227 8.54851 41.6202 8.52912 41.7187 8.52912C41.8172 8.52912 41.9147 8.54851 42.0057 8.5862C42.0967 8.6239 42.1794 8.67914 42.249 8.74878C42.3187 8.81842 42.3739 8.9011 42.4116 8.9921C42.4493 9.08309 42.4687 9.18061 42.4687 9.2791C42.4687 9.37759 42.4493 9.47512 42.4116 9.56611C42.3739 9.6571 42.3187 9.73978 42.249 9.80942L30.3132 21.7452L31.3738 22.8058L43.3097 10.87C43.5195 10.6613 43.6862 10.4132 43.8 10.14C43.9138 9.86675 43.9726 9.57377 43.973 9.27779C43.9734 8.98181 43.9154 8.68866 43.8023 8.41514C43.6892 8.14162 43.5233 7.89309 43.314 7.68381C43.1047 7.47452 42.8562 7.30858 42.5827 7.1955C42.3092 7.08242 42.016 7.02442 41.72 7.02483C41.4241 7.02523 41.1311 7.08403 40.8579 7.19785C40.5846 7.31167 40.3366 7.47828 40.1279 7.68814L39.5975 8.21846L35.8852 4.50611C35.6765 4.29627 35.4284 4.12967 35.1552 4.01587C34.8819 3.90206 34.5889 3.84328 34.293 3.8429C33.997 3.84251 33.7038 3.90053 33.4303 4.01363C33.1568 4.12672 32.9083 4.29267 32.699 4.50197C32.4897 4.71127 32.3238 4.9598 32.2108 5.23334C32.0977 5.50687 32.0397 5.80002 32.0401 6.09599C32.0406 6.39197 32.0994 6.68495 32.2132 6.95816C32.327 7.23137 32.4937 7.47943 32.7035 7.68814L34.8247 9.80933C34.964 9.95026 35.0418 10.1406 35.0412 10.3387C35.0406 10.5368 34.9617 10.7266 34.8216 10.8667C34.6815 11.0068 34.4917 11.0858 34.2935 11.0864C34.0954 11.087 33.9051 11.0092 33.7642 10.87L33.2339 10.3397C33.0251 10.1298 32.7771 9.96319 32.5039 9.84936C32.2306 9.73554 31.9377 9.67674 31.6417 9.67634C31.3457 9.67594 31.0526 9.73394 30.779 9.84702C30.5055 9.9601 30.257 10.126 30.0477 10.3353C29.8384 10.5446 29.6725 10.7931 29.5594 11.0667C29.4463 11.3402 29.3883 11.6333 29.3887 11.9293C29.3891 12.2253 29.4479 12.5183 29.5617 12.7915C29.6756 13.0647 29.8422 13.3128 30.052 13.5215L32.1736 15.6428L28.1924 19.624L29.2527 20.6846Z" fill="#4F4F4F"/>
<path d="M39.562 34.5811C39.2292 34.4401 38.8714 34.3677 38.5099 34.3683C38.1485 34.3689 37.7909 34.4424 37.4586 34.5846L32.6099 36.6434C32.6475 36.2779 32.6079 35.9086 32.4938 35.5594C32.3798 35.2101 32.1937 34.8887 31.9476 34.6158C31.7015 34.343 31.4009 34.1248 31.0652 33.9755C30.7295 33.8261 30.3662 33.7488 29.9988 33.7487H24.1812C23.5929 33.748 23.0127 33.611 22.4861 33.3485C20.0521 32.1351 17.3701 31.502 14.6505 31.4987H12.7495C12.7495 31.2998 12.6705 31.1091 12.5298 30.9684C12.3892 30.8278 12.1984 30.7488 11.9995 30.7488H0V32.2487H11.2495V41.2483H0V42.7483H11.9995C12.1984 42.7483 12.3892 42.6693 12.5298 42.5286C12.6705 42.388 12.7495 42.1972 12.7495 41.9983V41.7124L18.3486 44.0373C21.4011 45.2835 24.8134 45.3212 27.8927 44.1428L39.478 39.7252C39.8176 39.5961 40.1281 39.4005 40.3911 39.1498C40.6542 38.8991 40.8645 38.5984 41.0097 38.2653C41.16 37.9276 41.2414 37.5631 41.249 37.1935C41.2565 36.8238 41.1902 36.4564 41.0538 36.1127C40.921 35.7702 40.7204 35.4579 40.4641 35.1948C40.2078 34.9316 39.9009 34.7229 39.562 34.5811ZM39.6376 37.6596C39.5721 37.811 39.4769 37.9477 39.3578 38.0618C39.2387 38.1759 39.098 38.265 38.9439 38.3239L27.3583 42.7415C24.6356 43.7839 21.6183 43.7512 18.9188 42.6503L12.7495 40.0882V32.9987H14.6505C17.1373 33.0017 19.5896 33.5806 21.8153 34.6901C22.5502 35.0565 23.36 35.2476 24.1812 35.2486H29.9988C30.2928 35.2489 30.5751 35.3645 30.785 35.5705C30.9948 35.7765 31.1156 36.0566 31.1215 36.3506C31.1273 36.6447 31.0177 36.9293 30.8161 37.1434C30.6146 37.3576 30.3371 37.4842 30.0433 37.4962C30.013 37.4971 29.9829 37.4985 29.9525 37.4985H20.9991V38.9984H29.9525C29.968 38.9984 29.9833 38.9974 29.9988 38.9973V38.9984C30.0511 38.9984 30.1029 38.9965 30.1546 38.9934C30.7122 38.9701 31.2611 38.8462 31.7747 38.6278L38.0442 35.9654C38.1923 35.9021 38.3515 35.8694 38.5125 35.8691C38.6735 35.8689 38.8329 35.9011 38.9811 35.964C39.1351 36.0288 39.2745 36.124 39.3908 36.2439C39.5071 36.3639 39.598 36.5061 39.658 36.662C39.7212 36.8213 39.7519 36.9916 39.7484 37.1629C39.7449 37.3342 39.7073 37.5031 39.6376 37.6596Z" fill="#4F4F4F"/>
<path d="M9.74969 38.2484H8.24976V39.7484H9.74969V38.2484Z" fill="#4F4F4F"/>
<path d="M42.4188 13.7192L35.4077 20.7302L36.4683 21.7908L43.4794 14.7798L42.4188 13.7192Z" fill="#4F4F4F"/>
<path d="M34.4565 21.6815L33.4192 22.7188L34.4798 23.7794L35.5171 22.7421L34.4565 21.6815Z" fill="#4F4F4F"/>
</svg>
