<svg width="181" height="181" viewBox="0 0 181 181" fill="none" xmlns="http://www.w3.org/2000/svg">
<path d="M174.502 53.2573H6.4997C3.5038 53.2573 1.07513 55.686 1.07513 58.6819V122.318C1.07513 125.314 3.5038 127.742 6.4997 127.742H174.502C177.498 127.742 179.927 125.314 179.927 122.318V58.6819C179.927 55.686 177.498 53.2573 174.502 53.2573Z" fill="#133F77"/>
<path d="M22.8585 78.4673H36.5512C36.5663 78.4673 36.5813 78.4708 36.5949 78.4775C36.6085 78.4843 36.6203 78.4941 36.6295 78.5062C36.6386 78.5184 36.6448 78.5324 36.6475 78.5474C36.6503 78.5623 36.6495 78.5776 36.6453 78.5922L33.4687 89.4794C33.4628 89.4998 33.4505 89.5177 33.4335 89.5304C33.4165 89.5431 33.3958 89.55 33.3746 89.55H18.243C18.2215 89.5504 18.2002 89.5452 18.1813 89.535C18.1623 89.5248 18.1464 89.5099 18.1349 89.4917C18.1234 89.4734 18.1168 89.4526 18.1158 89.4311C18.1148 89.4096 18.1193 89.3882 18.129 89.369L22.768 78.5198C22.7767 78.5035 22.7898 78.49 22.8058 78.4807C22.8218 78.4715 22.84 78.4668 22.8585 78.4673V78.4673Z" fill="#78C2ED" stroke="white" stroke-width="0.21507" stroke-miterlimit="10"/>
<path d="M33.5357 89.6929L36.7104 78.7623C36.713 78.7542 36.718 78.7471 36.7249 78.7421C36.7317 78.7371 36.74 78.7344 36.7485 78.7344C36.7569 78.7344 36.7652 78.7371 36.772 78.7421C36.7789 78.7471 36.7839 78.7542 36.7865 78.7623L40.0445 90.3952C40.0462 90.3986 40.0471 90.4023 40.0471 90.4061C40.0471 90.4098 40.0462 90.4136 40.0445 90.4169L36.877 101.346C36.875 101.355 36.8701 101.363 36.863 101.368C36.856 101.374 36.8471 101.377 36.8381 101.377C36.829 101.377 36.8201 101.374 36.8131 101.368C36.806 101.363 36.8011 101.355 36.7991 101.346L33.5303 89.7146C33.5302 89.707 33.532 89.6996 33.5357 89.6929V89.6929Z" fill="#123F76" stroke="white" stroke-width="0.216215" stroke-miterlimit="10"/>
<path d="M33.3583 89.6584L18.1543 89.5933C18.1439 89.5932 18.1336 89.5957 18.1243 89.6005C18.1151 89.6053 18.1071 89.6122 18.101 89.6208C18.095 89.6293 18.0911 89.6391 18.0897 89.6494C18.0882 89.6598 18.0893 89.6703 18.0928 89.6801L22.444 101.7C22.4488 101.713 22.4575 101.724 22.4688 101.732C22.4802 101.74 22.4936 101.744 22.5074 101.744L36.6362 101.467C36.6463 101.467 36.6561 101.464 36.6651 101.46C36.674 101.455 36.6818 101.448 36.6879 101.44C36.694 101.432 36.6982 101.423 36.7002 101.413C36.7022 101.404 36.702 101.393 36.6996 101.384L33.4162 89.7055C33.4128 89.6925 33.4053 89.681 33.3949 89.6725C33.3845 89.6641 33.3717 89.6591 33.3583 89.6584V89.6584Z" fill="#0F9CDA" stroke="white" stroke-width="0.21507" stroke-miterlimit="10"/>
<path d="M38.8155 89.7236H52.5099C52.5252 89.7239 52.5402 89.7276 52.5537 89.7346C52.5673 89.7416 52.5791 89.7516 52.5882 89.7638C52.5973 89.7761 52.6034 89.7902 52.6062 89.8052C52.6089 89.8202 52.6082 89.8357 52.604 89.8503L49.4275 100.737C49.4213 100.758 49.4089 100.775 49.392 100.788C49.375 100.801 49.3545 100.808 49.3334 100.808H34.209C34.1875 100.808 34.1663 100.803 34.1474 100.793C34.1285 100.783 34.1125 100.768 34.1009 100.75C34.0893 100.732 34.0825 100.711 34.0812 100.689C34.0798 100.668 34.0839 100.646 34.0932 100.627L38.734 89.7761C38.7421 89.7613 38.7538 89.7487 38.768 89.7395C38.7823 89.7303 38.7986 89.7249 38.8155 89.7236V89.7236Z" fill="#78C2ED" stroke="white" stroke-width="0.21507" stroke-miterlimit="10"/>
<path d="M49.4944 100.949L52.671 90.0182C52.6729 90.0093 52.6778 90.0013 52.6849 89.9956C52.692 89.9899 52.7008 89.9868 52.7099 89.9868C52.719 89.9868 52.7278 89.9899 52.7349 89.9956C52.742 90.0013 52.7469 90.0093 52.7488 90.0182L56.0068 101.651C56.0086 101.658 56.0086 101.666 56.0068 101.673L52.8375 112.603C52.835 112.611 52.8299 112.619 52.8231 112.624C52.8162 112.629 52.808 112.631 52.7995 112.631C52.791 112.631 52.7827 112.629 52.7759 112.624C52.7691 112.619 52.764 112.611 52.7615 112.603L49.4908 100.974C49.4889 100.966 49.4902 100.957 49.4944 100.949Z" fill="#123F76" stroke="white" stroke-width="0.216215" stroke-miterlimit="10"/>
<path d="M49.3171 100.915L34.1131 100.85C34.1024 100.849 34.0919 100.852 34.0824 100.857C34.0729 100.862 34.0648 100.869 34.0587 100.878C34.0527 100.886 34.0488 100.896 34.0476 100.907C34.0463 100.918 34.0477 100.928 34.0515 100.938L38.4064 112.957C38.4114 112.969 38.4201 112.98 38.4314 112.988C38.4427 112.996 38.456 113 38.4697 113L52.6004 112.723C52.6104 112.723 52.6202 112.721 52.6292 112.716C52.6381 112.711 52.6458 112.705 52.6517 112.697C52.6577 112.689 52.6617 112.679 52.6635 112.67C52.6652 112.66 52.6647 112.65 52.6619 112.64L49.3786 100.962C49.375 100.948 49.367 100.936 49.3559 100.928C49.3447 100.919 49.3311 100.915 49.3171 100.915V100.915Z" fill="#0F9CDA" stroke="white" stroke-width="0.21507" stroke-miterlimit="10"/>
<path d="M38.9241 67.0947H52.6167C52.6319 67.0947 52.6469 67.0982 52.6605 67.105C52.674 67.1117 52.6859 67.1215 52.695 67.1337C52.7041 67.1458 52.7103 67.1599 52.7131 67.1748C52.7158 67.1897 52.7151 67.2051 52.7108 67.2196L49.5343 78.1068C49.5281 78.127 49.5157 78.1448 49.4988 78.1575C49.4819 78.1702 49.4613 78.1771 49.4402 78.1774H34.3086C34.2871 78.1778 34.2658 78.1727 34.2468 78.1624C34.2279 78.1522 34.2119 78.1373 34.2004 78.1191C34.189 78.1009 34.1824 78.08 34.1814 78.0585C34.1803 78.037 34.1849 78.0156 34.1945 77.9964L38.8336 67.1509C38.8416 67.1338 38.8544 67.1194 38.8705 67.1094C38.8866 67.0994 38.9052 67.0944 38.9241 67.0947Z" fill="#78C2ED" stroke="white" stroke-width="0.21507" stroke-miterlimit="10"/>
<path d="M49.594 78.3207L52.767 67.3883C52.7689 67.3794 52.7738 67.3715 52.7809 67.3658C52.788 67.36 52.7968 67.3569 52.8059 67.3569C52.815 67.3569 52.8238 67.36 52.8309 67.3658C52.8379 67.3715 52.8429 67.3794 52.8448 67.3883L56.1028 79.0194C56.1046 79.0271 56.1046 79.0352 56.1028 79.0429L52.9353 89.9717C52.9334 89.9806 52.9284 89.9885 52.9214 89.9942C52.9143 89.9999 52.9055 90.0031 52.8964 90.0031C52.8873 90.0031 52.8785 89.9999 52.8714 89.9942C52.8643 89.9885 52.8594 89.9806 52.8575 89.9717L49.594 78.3424C49.5922 78.3353 49.5922 78.3278 49.594 78.3207V78.3207Z" fill="#123F76" stroke="white" stroke-width="0.216215" stroke-miterlimit="10"/>
<path d="M49.4239 78.2844L34.2199 78.2192C34.2092 78.2191 34.1987 78.2216 34.1892 78.2265C34.1798 78.2314 34.1716 78.2385 34.1656 78.2473C34.1595 78.256 34.1556 78.2661 34.1544 78.2767C34.1531 78.2873 34.1545 78.298 34.1583 78.3079L38.515 90.3281C38.5197 90.341 38.5283 90.352 38.5398 90.3595C38.5512 90.367 38.5647 90.3706 38.5783 90.3698L52.7072 90.0928C52.7174 90.0931 52.7274 90.0909 52.7365 90.0864C52.7456 90.0819 52.7535 90.0753 52.7596 90.0672C52.7656 90.059 52.7696 90.0495 52.7712 90.0395C52.7728 90.0295 52.7719 90.0192 52.7688 90.0096L49.4872 78.3333C49.4836 78.3192 49.4754 78.3068 49.4639 78.298C49.4525 78.2891 49.4384 78.2843 49.4239 78.2844V78.2844Z" fill="#0F9CDA" stroke="white" stroke-width="0.21507" stroke-miterlimit="10"/>
<path d="M72.485 91.8141C72.9629 91.4431 73.2778 91.1082 73.4262 90.8078C73.5807 90.4868 73.6576 90.134 73.6507 89.7779V77.2473C73.6659 76.894 73.6149 76.541 73.5005 76.2065C73.3096 75.8204 73.066 75.4628 72.7765 75.144H77.6635C77.3353 75.4564 77.0537 75.8142 76.8272 76.2065C76.6699 76.531 76.5877 76.8867 76.5865 77.2473V89.7761C76.5849 89.9471 76.6031 90.1178 76.6408 90.2847C76.6836 90.4606 76.7442 90.6316 76.8218 90.7951C76.9095 90.9779 77.0209 91.1483 77.153 91.3019C77.3177 91.4886 77.4995 91.6595 77.696 91.8123L72.485 91.8141ZM76.744 83.0501L81.0572 77.2473C81.311 76.9313 81.4575 76.5426 81.4753 76.1377C81.4753 75.8445 81.3052 75.5133 80.9685 75.144H85.8736L79.8029 82.6574C80.8442 84.226 81.7317 85.49 82.4654 86.4493C83.199 87.4086 83.9683 88.3178 84.7731 89.177C85.2409 89.672 85.7332 90.1432 86.2483 90.5888C86.5222 90.8349 86.8125 91.0623 87.1171 91.2693C87.4087 91.4666 87.7108 91.6479 88.0221 91.8123H84.346C84.028 91.8025 83.7172 91.7149 83.441 91.5571C82.7073 91.2639 81.6213 90.0922 80.183 88.0421L77.5657 84.2972L76.744 83.0501Z" fill="white"/>
<path d="M97.4722 86.0798H89.0521C89.0766 86.4928 89.1371 86.9028 89.2331 87.3052C89.3322 87.6269 89.4657 87.937 89.6313 88.2301C90.4241 89.5864 91.6911 90.2646 93.4323 90.2646C94.1562 90.2633 94.8738 90.1302 95.55 89.8718C95.8436 89.7686 96.1307 89.6477 96.4097 89.5098C96.6764 89.377 97.0438 89.1725 97.512 88.8962L95.798 91.8103C95.3771 91.9658 94.9426 92.0816 94.5002 92.156C94.0483 92.2215 93.592 92.2523 93.1354 92.2483C91.0238 92.2483 89.3302 91.6703 88.0548 90.5143C86.7793 89.3583 86.1416 87.8247 86.1416 85.9133C86.1416 84.1407 86.7136 82.6692 87.8575 81.4987C89.0014 80.3283 90.4379 79.7424 92.1671 79.7412C93.883 79.7412 95.1994 80.2806 96.1165 81.3594C97.0336 82.4381 97.4855 84.0116 97.4722 86.0798ZM92.0295 81.5023C91.3538 81.474 90.6944 81.7148 90.196 82.172C89.7254 82.6185 89.4165 83.2659 89.2693 84.1142H94.5472C94.5632 83.7669 94.5087 83.42 94.3871 83.0943C94.2654 82.7686 94.0792 82.4709 93.8395 82.2191C93.6034 81.9814 93.3208 81.7951 93.0094 81.6718C92.6979 81.5484 92.3643 81.4908 92.0295 81.5023Z" fill="white"/>
<path d="M95.9988 97.5698L98.0658 95.1879C98.4155 95.5302 98.88 95.7302 99.369 95.749C99.5799 95.7603 99.7908 95.7269 99.9879 95.6511C100.185 95.5754 100.364 95.4588 100.513 95.3091C100.699 95.0853 100.862 94.8427 100.998 94.5851C101.18 94.2738 101.327 93.9437 101.438 93.6005L102.032 91.9335L98.3518 83.079C97.9126 82.0135 97.5976 81.342 97.407 81.0644C97.2151 80.7857 96.835 80.4545 96.263 80.0689L97.4287 80.1612C97.6102 80.1591 97.7914 80.1476 97.9717 80.1268C98.178 80.1033 98.3789 80.0762 98.578 80.0454C98.7689 80.0161 98.9567 79.9694 99.1391 79.906C99.4468 79.7854 99.7111 79.6774 99.9319 79.582L103.452 88.3804L105.785 82.2898C105.955 81.8921 106.065 81.4711 106.109 81.0409C106.11 80.8711 106.068 80.7038 105.988 80.554C105.864 80.3461 105.707 80.1597 105.523 80.002H109.505L103.478 94.2647C103.265 94.7858 103.015 95.2909 102.73 95.7761C101.834 97.2241 100.33 97.9481 98.2197 97.9481C97.4654 97.9254 96.718 97.798 95.9988 97.5698V97.5698Z" fill="white"/>
<path d="M108.645 88.8545L109.239 89.2165C109.489 89.371 109.739 89.5097 109.988 89.6328C110.539 89.8723 111.109 90.0654 111.691 90.2102C112.241 90.3563 112.806 90.4341 113.375 90.4419C114.099 90.4419 114.664 90.3031 115.069 90.0256C115.261 89.9067 115.419 89.7396 115.527 89.5409C115.635 89.3421 115.689 89.1186 115.684 88.8925C115.692 88.6572 115.638 88.424 115.526 88.2169C115.414 88.0098 115.249 87.8363 115.047 87.7142C114.851 87.5962 114.644 87.4957 114.43 87.4138C114.197 87.3196 113.786 87.1821 113.199 86.9975C112.174 86.6729 111.521 86.449 111.241 86.3259C110.876 86.1472 110.536 85.9221 110.229 85.6562C109.898 85.3838 109.632 85.0414 109.449 84.6535C109.267 84.2657 109.173 83.8423 109.174 83.4137C109.174 82.2734 109.603 81.3828 110.461 80.7421C111.319 80.1014 112.525 79.7816 114.081 79.7828C114.536 79.7763 114.991 79.7998 115.444 79.8534L116.633 80.0833V82.4272C116.452 82.3331 116.211 82.21 115.896 82.0652C115.563 81.9051 115.216 81.7738 114.861 81.6724C114.5 81.5672 114.127 81.513 113.751 81.5113C113.133 81.5113 112.651 81.6187 112.303 81.8335C112.141 81.9264 112.008 82.0615 111.917 82.2244C111.825 82.3873 111.78 82.5719 111.786 82.7584C111.784 82.9564 111.834 83.1513 111.929 83.325C112.029 83.5072 112.168 83.6653 112.336 83.7883C112.518 83.9224 112.718 84.0313 112.93 84.1123C113.15 84.1956 113.516 84.3078 114.03 84.4472C114.822 84.6527 115.596 84.9215 116.345 85.2508C116.801 85.492 117.205 85.8219 117.532 86.221C117.957 86.7157 118.169 87.3794 118.169 88.212C118.186 88.7578 118.084 89.3008 117.869 89.8029C117.654 90.305 117.333 90.7541 116.926 91.1188C116.09 91.873 115.004 92.2507 113.668 92.2519C112.946 92.2617 112.225 92.2078 111.512 92.0908L110.281 91.8356L109.738 91.7668L108.645 88.8545Z" fill="white"/>
<path d="M118.083 81.6873V80.6701C119.079 80.5494 119.798 80.1639 120.238 79.5135C120.679 78.8631 120.898 77.8537 120.897 76.4853V76.2012H122.195V80.0022H125.209V82.5L125.008 82.319C124.879 82.1959 124.741 82.0833 124.595 81.9823C124.453 81.8913 124.299 81.8212 124.137 81.7742C123.919 81.7164 123.693 81.6896 123.467 81.6945H122.2V88.0512C122.194 88.2928 122.202 88.5346 122.224 88.7752C122.256 88.9246 122.318 89.0661 122.405 89.1915C122.609 89.4858 122.897 89.7116 123.232 89.8395C123.627 90.0113 124.054 90.0983 124.485 90.0947L124.953 90.0712L123.382 92.1292C122.714 92.078 122.056 91.938 121.426 91.7129C120.951 91.5125 120.534 91.1949 120.215 90.7898C119.967 90.4991 119.782 90.1601 119.672 89.7943C119.56 89.3017 119.512 88.7968 119.529 88.292V81.6873H118.083Z" fill="white"/>
<path d="M125.009 85.8249C125.009 83.992 125.64 82.474 126.901 81.2709C128.162 80.0679 129.746 79.4646 131.652 79.4609C133.528 79.4609 135.046 80.0462 136.206 81.2166C137.366 82.3871 137.945 83.9365 137.944 85.8647C137.944 87.7145 137.32 89.2404 136.074 90.4422C134.827 91.644 133.244 92.2474 131.323 92.2522C129.417 92.2522 127.889 91.6628 126.736 90.4838C125.584 89.3049 125.008 87.7519 125.009 85.8249ZM127.804 85.6638V85.872C127.804 87.151 128.182 88.2183 128.937 89.0738C129.276 89.481 129.702 89.8075 130.183 90.0295C130.664 90.2515 131.189 90.3634 131.719 90.3571C132.201 90.3656 132.677 90.2575 133.108 90.0419C133.539 89.8263 133.911 89.5097 134.193 89.1191C134.83 88.2949 135.15 87.2355 135.151 85.9407C135.151 84.5989 134.798 83.5045 134.094 82.6574C133.768 82.2502 133.352 81.9239 132.879 81.7041C132.405 81.4843 131.888 81.3769 131.366 81.3904C130.876 81.3764 130.389 81.4754 129.943 81.6797C129.497 81.884 129.104 82.1882 128.794 82.5687C128.133 83.3518 127.803 84.3835 127.804 85.6638V85.6638Z" fill="white"/>
<path d="M138.646 80.114L139.504 80.1375L140.559 80.0706C140.815 80.0352 141.068 79.9838 141.318 79.9167C141.531 79.8564 141.843 79.7605 142.253 79.6289V81.2471C142.677 80.7261 143.214 80.3093 143.824 80.0287C144.434 79.7482 145.101 79.6114 145.772 79.6289C148.632 79.6289 150.062 81.0498 150.062 83.8915V90.098C150.061 90.2152 150.075 90.3321 150.105 90.4455L150.172 90.7007C150.302 91.1392 150.563 91.5275 150.92 91.8139H146.429C146.736 91.6054 146.979 91.3168 147.133 90.9794C147.274 90.5221 147.335 90.0439 147.314 89.5658V83.4716C147.18 82.2806 146.399 81.6857 144.972 81.6869C144.014 81.6869 143.3 81.9337 142.829 82.4272C142.609 82.6195 142.448 82.8707 142.366 83.1512C142.273 83.628 142.236 84.1139 142.255 84.5992V89.5586C142.24 90.0097 142.301 90.4602 142.436 90.8908C142.587 91.2521 142.83 91.5678 143.14 91.8066H138.713C138.837 91.6932 138.955 91.5723 139.064 91.4446C139.118 91.3828 139.167 91.3168 139.211 91.2473C139.324 91.0947 139.408 90.9222 139.459 90.7387L139.527 90.1378V82.496C139.549 82.0018 139.497 81.5071 139.374 81.0281C139.22 80.6624 138.968 80.3461 138.646 80.114V80.114Z" fill="white"/>
<path d="M162.996 86.0798H154.574C154.599 86.4928 154.659 86.9028 154.755 87.3052C154.854 87.6269 154.988 87.937 155.153 88.2301C155.946 89.5864 157.213 90.2646 158.954 90.2646C159.678 90.2633 160.396 90.1302 161.072 89.8718C161.366 89.7686 161.653 89.6477 161.932 89.5098C162.196 89.377 162.563 89.1725 163.034 88.8962L161.32 91.8103C160.899 91.9658 160.465 92.0816 160.022 92.156C159.57 92.2215 159.114 92.2523 158.657 92.2483C156.545 92.2483 154.851 91.6703 153.577 90.5143C152.303 89.3583 151.665 87.8247 151.664 85.9133C151.664 84.1407 152.236 82.6692 153.379 81.4987C154.523 80.3283 155.96 79.7424 157.689 79.7412C159.405 79.7412 160.721 80.2806 161.638 81.3594C162.556 82.4381 163.008 84.0116 162.996 86.0798ZM157.553 81.5023C156.878 81.474 156.218 81.7148 155.72 82.172C155.249 82.6185 154.94 83.2659 154.791 84.1142H160.071C160.087 83.7669 160.032 83.42 159.911 83.0943C159.789 82.7686 159.603 82.4709 159.363 82.2191C159.127 81.9814 158.845 81.7951 158.533 81.6718C158.222 81.5484 157.888 81.4908 157.553 81.5023V81.5023Z" fill="white"/>
<path d="M72.552 113.643C72.7615 113.488 72.9566 113.314 73.1348 113.123C73.2637 112.979 73.3749 112.82 73.4661 112.649C73.6224 112.325 73.7011 111.968 73.6959 111.608V99.0542C73.7052 98.7011 73.6372 98.3502 73.4968 98.0261C73.2892 97.6362 73.0223 97.2808 72.7059 96.9727H77.5657C79.2671 96.9727 80.6385 97.1965 81.6798 97.6442C82.2962 97.9127 82.8226 98.3525 83.1966 98.9112C83.5658 99.4825 83.7549 100.152 83.7396 100.832C83.7534 101.222 83.6886 101.612 83.549 101.977C83.4094 102.343 83.1978 102.676 82.9269 102.958C82.7285 103.183 82.4986 103.377 82.2446 103.536C81.9171 103.726 81.5707 103.881 81.211 103.999C81.6749 104.061 82.1314 104.169 82.574 104.321C82.9251 104.462 83.2519 104.658 83.5423 104.9C84.5535 105.702 85.0591 106.803 85.0591 108.206C85.0589 108.78 84.9622 109.351 84.7731 109.894C84.5854 110.443 84.3111 110.958 83.9604 111.42C83.3117 112.228 82.4391 112.827 81.4518 113.141C80.4394 113.474 79.0246 113.64 77.2073 113.639L72.552 113.643ZM76.534 98.8225V103.771C76.7681 103.81 77.0045 103.833 77.2417 103.84C78.4954 103.84 79.3799 103.598 79.8952 103.116C80.1433 102.881 80.3402 102.598 80.4736 102.284C80.6069 101.969 80.6737 101.631 80.6699 101.29C80.6699 100.488 80.4116 99.8638 79.8952 99.4162C79.3787 98.9685 78.6421 98.7452 77.6852 98.7465L76.534 98.8225ZM76.534 105.458V111.431C76.885 111.529 77.2416 111.607 77.6019 111.663C77.8975 111.696 78.1949 111.711 78.4924 111.708C79.5338 111.708 80.3917 111.406 81.0662 110.803C81.6167 110.29 81.9673 109.598 82.0558 108.851C82.1443 108.103 81.9649 107.349 81.5495 106.721C81.1829 106.211 80.6506 105.844 80.0436 105.682C79.3313 105.481 78.5937 105.383 77.8535 105.393L76.534 105.458Z" fill="white"/>
<path d="M87.1117 104.618L88.9597 101.845C89.4592 101.722 89.8212 101.644 90.0457 101.613C90.3925 101.576 90.7413 101.56 91.09 101.566C92.5706 101.566 93.6995 101.898 94.4766 102.562C94.7903 102.81 95.0332 103.136 95.1806 103.508C95.2838 103.818 95.3345 104.372 95.3345 105.173V110.051C95.3162 110.421 95.3534 110.791 95.4449 111.15C95.5346 111.38 95.7078 111.568 95.93 111.677C96.2808 111.837 96.6655 111.908 97.0504 111.885H97.5355L96.111 113.892C95.8762 113.965 95.6326 114.005 95.387 114.012C94.688 114.016 94.0129 113.758 93.4955 113.288C92.9381 112.797 92.6593 112.248 92.6593 111.641V107.695L92.0204 107.903L90.9869 108.135C90.3078 108.296 89.6508 108.539 89.0303 108.859C88.5452 109.152 88.3063 109.621 88.3063 110.269C88.2947 110.525 88.3445 110.78 88.4516 111.014C88.5586 111.247 88.7198 111.451 88.9217 111.61C89.3319 111.933 89.8888 112.095 90.5923 112.095C90.8547 112.096 91.1166 112.071 91.3742 112.021C91.7352 111.944 92.0912 111.845 92.4403 111.726L91.1154 113.686C90.7341 113.794 90.4004 113.876 90.1145 113.93C89.8575 113.982 89.5963 114.009 89.3343 114.012C88.8346 114.013 88.3401 113.91 87.8819 113.711C87.4236 113.512 87.0116 113.22 86.6718 112.853C86.307 112.502 86.0174 112.08 85.8208 111.613C85.6241 111.147 85.5245 110.645 85.5279 110.138C85.5279 108.379 86.7949 107.259 89.3289 106.779L90.6267 106.502C91.3591 106.363 91.8684 106.189 92.1543 105.979C92.2944 105.878 92.407 105.744 92.482 105.588C92.5569 105.433 92.5917 105.261 92.5833 105.088C92.5929 104.887 92.5528 104.687 92.4666 104.505C92.3804 104.323 92.2508 104.166 92.0892 104.046C91.6909 103.778 91.2162 103.648 90.7371 103.675C90.3606 103.684 89.9854 103.723 89.6149 103.791C89.0574 103.928 88.6646 104.033 88.4384 104.102C88.2121 104.171 87.7723 104.348 87.1117 104.618Z" fill="white"/>
<path d="M96.9672 101.945L97.8233 101.966L98.8803 101.901C99.136 101.864 99.3892 101.812 99.6387 101.746C99.8505 101.688 100.164 101.592 100.574 101.458V103.087C100.997 102.564 101.534 102.145 102.144 101.863C102.754 101.58 103.421 101.442 104.093 101.458C106.953 101.458 108.383 102.879 108.383 105.72V111.929C108.382 112.046 108.397 112.163 108.426 112.276C108.455 112.385 108.477 112.47 108.491 112.531C108.623 112.969 108.884 113.357 109.241 113.643H104.752C105.059 113.435 105.303 113.146 105.456 112.808C105.599 112.351 105.66 111.873 105.637 111.395V105.3C105.503 104.112 104.722 103.517 103.295 103.516C102.338 103.516 101.624 103.763 101.152 104.258C100.932 104.45 100.77 104.701 100.687 104.982C100.596 105.459 100.56 105.945 100.578 106.43V111.389C100.562 111.84 100.623 112.291 100.759 112.721C100.909 113.083 101.152 113.399 101.463 113.637H97.0323C97.157 113.525 97.2737 113.404 97.3817 113.275C97.4362 113.214 97.4858 113.149 97.5301 113.08C97.6426 112.927 97.7266 112.754 97.7781 112.571L97.8468 111.968V104.325C97.8679 103.831 97.8161 103.336 97.693 102.857C97.5398 102.492 97.2886 102.176 96.9672 101.945V101.945Z" fill="white"/>
<path d="M110.142 96.9958L111 97.0194C111.923 97.0002 112.837 96.8283 113.704 96.5107V111.932C113.717 112.135 113.751 112.336 113.804 112.533C113.846 112.747 113.92 112.953 114.025 113.145C114.161 113.336 114.328 113.504 114.519 113.642H110.164C110.429 113.406 110.633 113.108 110.757 112.775C110.878 112.327 110.93 111.863 110.911 111.4V99.1226C110.933 98.6756 110.888 98.228 110.779 97.794C110.642 97.4757 110.422 97.2 110.142 96.9958V96.9958ZM113.784 106.951L116.499 103.771C116.926 103.295 117.14 102.873 117.14 102.504C117.14 102.323 117.015 102.096 116.767 101.834H120.901L116.696 106.754L121.205 112.348C121.645 112.877 122.183 113.316 122.789 113.642H119.86C119.447 113.667 119.034 113.588 118.66 113.411C118.388 113.257 118.077 112.933 117.724 112.439L113.784 106.951Z" fill="white"/>
<path d="M51.585 78.9793H65.2794C65.2947 78.9796 65.3097 78.9833 65.3232 78.9903C65.3368 78.9972 65.3486 79.0072 65.3577 79.0195C65.3668 79.0317 65.3729 79.0459 65.3757 79.0609C65.3784 79.0759 65.3777 79.0913 65.3735 79.106L62.1916 89.9932C62.1854 90.0134 62.173 90.0311 62.156 90.0438C62.1391 90.0565 62.1186 90.0635 62.0974 90.0637H46.9658C46.9443 90.064 46.9232 90.0587 46.9042 90.0485C46.8853 90.0383 46.8693 90.0234 46.8578 90.0053C46.8462 89.9872 46.8394 89.9665 46.838 89.945C46.8367 89.9236 46.8408 89.9022 46.85 89.8827L51.4908 79.0336C51.4992 79.0161 51.5127 79.0015 51.5295 78.9918C51.5463 78.9821 51.5656 78.9778 51.585 78.9793V78.9793Z" fill="#78C2ED" stroke="white" stroke-width="0.21507" stroke-miterlimit="10"/>
<path d="M62.264 90.2049L65.4315 79.278C65.4334 79.2691 65.4383 79.2611 65.4454 79.2554C65.4525 79.2497 65.4613 79.2466 65.4704 79.2466C65.4795 79.2466 65.4883 79.2497 65.4954 79.2554C65.5025 79.2611 65.5074 79.2691 65.5093 79.278L68.7673 90.9108C68.7691 90.918 68.7691 90.9254 68.7673 90.9326L65.5998 101.863C65.5979 101.872 65.593 101.88 65.5859 101.886C65.5788 101.891 65.57 101.895 65.5609 101.895C65.5518 101.895 65.543 101.891 65.5359 101.886C65.5288 101.88 65.5239 101.872 65.522 101.863L62.264 90.2285C62.2622 90.2207 62.2622 90.2127 62.264 90.2049Z" fill="#123F76" stroke="white" stroke-width="0.216215" stroke-miterlimit="10"/>
<path d="M62.083 90.1706L46.879 90.1055C46.8683 90.1053 46.8578 90.1078 46.8483 90.1127C46.8389 90.1176 46.8307 90.1247 46.8247 90.1335C46.8186 90.1422 46.8148 90.1523 46.8135 90.1629C46.8122 90.1735 46.8136 90.1842 46.8175 90.1942L51.1741 102.213C51.1784 102.225 51.1867 102.237 51.1977 102.244C51.2088 102.252 51.2221 102.256 51.2357 102.256L65.3663 101.979C65.3765 101.979 65.3865 101.977 65.3956 101.973C65.4047 101.968 65.4126 101.962 65.4187 101.953C65.4247 101.945 65.4287 101.936 65.4303 101.926C65.4319 101.916 65.4311 101.905 65.4279 101.896L62.1463 90.2177C62.1419 90.2043 62.1334 90.1926 62.1221 90.1842C62.1108 90.1758 62.0971 90.171 62.083 90.1706V90.1706Z" fill="#0F9CDA" stroke="white" stroke-width="0.21507" stroke-miterlimit="10"/>
</svg>
