<svg width="24" height="34" viewBox="0 0 24 34" fill="none" xmlns="http://www.w3.org/2000/svg">
<path d="M12 0C6.93458 0.0062206 2.82971 4.11102 2.82349 9.17651V14.8236C2.82349 15.2134 3.13955 15.5295 3.52939 15.5295H6.35295C6.7428 15.5295 7.05886 15.2134 7.05886 14.8236V9.17651C7.05879 6.44752 9.27107 4.2353 12 4.2353C14.7289 4.2353 16.9412 6.44752 16.9412 9.17651V14.8236C16.9412 15.2134 17.2573 15.5295 17.6471 15.5295H20.4706C20.8604 15.5295 21.1765 15.2134 21.1765 14.8236V9.17651C21.1703 4.11102 17.0654 0.0062206 12 0Z" fill="#455A64"/>
<path d="M3.5294 14.1179H20.4706C22.4198 14.1179 24 15.6981 24 17.6473V30.3532C24 32.3025 22.4198 33.8827 20.4706 33.8827H3.5294C1.58016 33.8827 0 32.3025 0 30.3533V17.6474C0 15.6981 1.58016 14.1179 3.5294 14.1179Z" fill="#FF6600"/>
<path d="M15.5294 21.8822C15.5376 19.933 13.9641 18.3461 12.0149 18.3379C10.0657 18.3297 8.4788 19.9032 8.4706 21.8524C8.46491 23.1998 9.2268 24.4328 10.4343 25.0304L9.88936 28.8422C9.83476 29.2282 10.1034 29.5854 10.4894 29.64C10.5221 29.6446 10.5552 29.6469 10.5882 29.6469H13.4117C13.8016 29.6509 14.1208 29.3381 14.1247 28.9482C14.1251 28.9123 14.1227 28.8763 14.1176 28.8408L13.5726 25.029C14.7654 24.4321 15.5216 23.2159 15.5294 21.8822Z" fill="#455A64"/>
</svg>
