<svg width="14" height="11" viewBox="0 0 14 11" fill="none" xmlns="http://www.w3.org/2000/svg">
<path d="M7 5.5L0 1.95898V1.125C0 0.878906 0.0865885 0.671549 0.259766 0.50293C0.432943 0.33431 0.638021 0.25 0.875 0.25H13.125C13.362 0.25 13.5671 0.33431 13.7402 0.50293C13.9134 0.671549 14 0.878906 14 1.125V1.95898L7 5.5ZM6.5625 6.375H7.4375L14 2.9707V9.875C14 10.112 13.9134 10.3171 13.7402 10.4902C13.5671 10.6634 13.362 10.75 13.125 10.75H0.875C0.638021 10.75 0.432943 10.6634 0.259766 10.4902C0.0865885 10.3171 0 10.112 0 9.875V2.9707L6.5625 6.375Z" fill="white"/>
</svg>
