<svg width="39" height="39" viewBox="0 0 39 39" fill="none" xmlns="http://www.w3.org/2000/svg">
<path d="M19.5 36.8333C16.6268 36.8333 13.8713 35.692 11.8397 33.6603C9.80805 31.6287 8.66669 28.8732 8.66669 26V13C8.66669 10.1268 9.80805 7.37131 11.8397 5.33967C13.8713 3.30802 16.6268 2.16666 19.5 2.16666C22.3732 2.16666 25.1287 3.30802 27.1603 5.33967C29.192 7.37131 30.3334 10.1268 30.3334 13V26C30.3334 27.4226 30.0531 28.8314 29.5087 30.1457C28.9643 31.4601 28.1663 32.6543 27.1603 33.6603C26.1544 34.6663 24.9601 35.4643 23.6458 36.0087C22.3314 36.5531 20.9227 36.8333 19.5 36.8333ZM19.5 4.33332C17.2015 4.33332 14.9971 5.24642 13.3718 6.87173C11.7464 8.49705 10.8334 10.7014 10.8334 13V26C10.8334 28.2985 11.7464 30.5029 13.3718 32.1283C14.9971 33.7536 17.2015 34.6667 19.5 34.6667C21.7986 34.6667 24.003 33.7536 25.6283 32.1283C27.2536 30.5029 28.1667 28.2985 28.1667 26V13C28.1667 10.7014 27.2536 8.49705 25.6283 6.87173C24.003 5.24642 21.7986 4.33332 19.5 4.33332Z" fill="#F2F2F2"/>
<path d="M19.5 16.25C19.2127 16.25 18.9372 16.1359 18.734 15.9327C18.5308 15.7295 18.4167 15.454 18.4167 15.1667V10.8333C18.4167 10.546 18.5308 10.2705 18.734 10.0673C18.9372 9.86414 19.2127 9.75 19.5 9.75C19.7873 9.75 20.0629 9.86414 20.2661 10.0673C20.4692 10.2705 20.5834 10.546 20.5834 10.8333V15.1667C20.5834 15.454 20.4692 15.7295 20.2661 15.9327C20.0629 16.1359 19.7873 16.25 19.5 16.25Z" fill="#F2F2F2"/>
</svg>
