<svg width="14" height="17" viewBox="0 0 14 17" fill="none" xmlns="http://www.w3.org/2000/svg">
<path fill-rule="evenodd" clip-rule="evenodd" d="M1 2.5C1 1.96957 1.21071 1.46086 1.58579 1.08579C1.96086 0.710714 2.46957 0.5 3 0.5H11C11.5304 0.5 12.0391 0.710714 12.4142 1.08579C12.7893 1.46086 13 1.96957 13 2.5V14.5C13.2652 14.5 13.5196 14.6054 13.7071 14.7929C13.8946 14.9804 14 15.2348 14 15.5C14 15.7652 13.8946 16.0196 13.7071 16.2071C13.5196 16.3946 13.2652 16.5 13 16.5H10C9.73478 16.5 9.48043 16.3946 9.29289 16.2071C9.10536 16.0196 9 15.7652 9 15.5V13.5C9 13.2348 8.89464 12.9804 8.70711 12.7929C8.51957 12.6054 8.26522 12.5 8 12.5H6C5.73478 12.5 5.48043 12.6054 5.29289 12.7929C5.10536 12.9804 5 13.2348 5 13.5V15.5C5 15.7652 4.89464 16.0196 4.70711 16.2071C4.51957 16.3946 4.26522 16.5 4 16.5H1C0.734784 16.5 0.48043 16.3946 0.292893 16.2071C0.105357 16.0196 0 15.7652 0 15.5C0 15.2348 0.105357 14.9804 0.292893 14.7929C0.48043 14.6054 0.734784 14.5 1 14.5V2.5ZM4 3.5H6V5.5H4V3.5ZM6 7.5H4V9.5H6V7.5ZM8 3.5H10V5.5H8V3.5ZM10 7.5H8V9.5H10V7.5Z" fill="#F2F2F2"/>
</svg>
