<svg width="14" height="15" viewBox="0 0 14 15" fill="none" xmlns="http://www.w3.org/2000/svg">
<path d="M10.7585 14.4858C7.90629 14.4821 5.17197 13.3474 3.15517 11.3306C1.13836 9.31383 0.00369695 6.57952 0 3.72732C0 2.87503 0.338572 2.05765 0.941234 1.45499C1.5439 0.852324 2.36128 0.513752 3.21357 0.513752C3.39405 0.512377 3.57422 0.528757 3.7515 0.562654C3.92287 0.588013 4.09134 0.630132 4.25449 0.688402C4.36923 0.728662 4.47148 0.798176 4.55112 0.89007C4.63076 0.981963 4.68504 1.09305 4.70858 1.21235L5.66567 5.40397C5.69146 5.51775 5.68836 5.63617 5.65663 5.74844C5.6249 5.86071 5.56556 5.96324 5.48403 6.04668C5.39321 6.14449 5.38623 6.15147 4.52694 6.59858C5.21506 8.10816 6.42239 9.32045 7.92914 10.0147C8.38323 9.14848 8.39022 9.14149 8.48802 9.05068C8.57147 8.96914 8.674 8.9098 8.78627 8.87808C8.89853 8.84635 9.01696 8.84324 9.13074 8.86904L13.3224 9.82612C13.4378 9.85292 13.5446 9.90866 13.6326 9.9881C13.7206 10.0675 13.7869 10.1681 13.8253 10.2802C13.8843 10.446 13.9287 10.6167 13.9581 10.7902C13.9862 10.9658 14.0002 11.1433 14 11.3211C13.9871 12.1698 13.639 12.9789 13.0317 13.5718C12.4244 14.1647 11.6072 14.4933 10.7585 14.4858V14.4858Z" fill="white"/>
</svg>
