<svg width="33" height="33" viewBox="0 0 33 33" fill="none" xmlns="http://www.w3.org/2000/svg">
<g clip-path="url(#clip0)">
<path d="M30.25 14.9628C29.491 14.9628 28.875 14.3468 28.875 13.5878C28.875 9.73097 27.3735 6.10647 24.6468 3.37847C24.1092 2.84085 24.1092 1.97185 24.6468 1.43422C25.1845 0.8966 26.0535 0.8966 26.5911 1.43422C29.8375 4.6806 31.625 8.99672 31.625 13.5878C31.625 14.3468 31.009 14.9628 30.25 14.9628Z" fill="#FF6600"/>
<path d="M2.75 14.9628C1.991 14.9628 1.375 14.3468 1.375 13.5878C1.375 8.99672 3.1625 4.6806 6.40887 1.43422C6.94649 0.8966 7.81549 0.8966 8.35312 1.43422C8.89074 1.97185 8.89074 2.84085 8.35312 3.37847C5.6265 6.1051 4.125 9.73097 4.125 13.5878C4.125 14.3468 3.509 14.9628 2.75 14.9628Z" fill="#FF6600"/>
<path d="M22 27.4997C22 30.5371 19.5374 32.9997 16.5 32.9997C13.4627 32.9997 11 30.5371 11 27.4997C11 24.4624 13.4627 21.9998 16.5 21.9998C19.5374 21.9998 22 24.4624 22 27.4997Z" fill="#FFA000"/>
<path d="M16.5 5.5C15.741 5.5 15.125 4.884 15.125 4.125V1.375C15.125 0.616 15.741 0 16.5 0C17.259 0 17.875 0.616 17.875 1.375V4.125C17.875 4.884 17.259 5.5 16.5 5.5Z" fill="#FFA000"/>
<path d="M29.3961 23.2542C27.3171 21.497 26.125 18.9299 26.125 16.2087V12.3752C26.125 7.06774 21.8061 2.75024 16.5 2.75024C11.1938 2.75024 6.87497 7.06774 6.87497 12.3752V16.2087C6.87497 18.9299 5.68284 21.4984 3.59147 23.2666C3.05659 23.7231 2.74997 24.39 2.74997 25.094C2.74997 26.4209 3.82934 27.5002 5.15622 27.5002H27.8437C29.1706 27.5002 30.25 26.4209 30.25 25.094C30.25 24.39 29.9433 23.7231 29.3961 23.2542Z" fill="#FFC107"/>
<path d="M7.38099 1.03125C7.02899 1.03125 6.67699 1.166 6.40887 1.43412C3.1625 4.6805 1.375 8.99662 1.375 13.5877C1.375 14.3468 1.991 14.9627 2.75 14.9627C3.509 14.9627 4.125 14.3468 4.125 13.5877C4.125 9.73088 5.6265 6.105 8.35312 3.37838C8.89074 2.84075 8.89074 1.97175 8.35312 1.43412C8.08499 1.166 7.73299 1.03125 7.38099 1.03125Z" fill="#FF6600"/>
<path d="M16.5 27.5002H11C11 30.5376 13.4627 33.0002 16.5 33.0002V27.5002Z" fill="#DE8B00"/>
<path d="M16.5 0C15.741 0 15.125 0.616 15.125 1.375V2.84763C15.5746 2.783 16.0339 2.75 16.5 2.75V0Z" fill="#DE8B00"/>
<path d="M16.5 2.75024C16.0338 2.75024 15.5746 2.78324 15.125 2.84787C10.4665 3.51749 6.87497 7.53524 6.87497 12.3752V16.2087C6.87497 18.9299 5.68284 21.4984 3.59147 23.2666C3.05659 23.7231 2.74997 24.39 2.74997 25.094C2.74997 26.4209 3.82934 27.5002 5.15622 27.5002H11H16.5V2.75024Z" fill="#DEA806"/>
</g>
<defs>
<clipPath id="clip0">
<rect width="33" height="33" fill="white"/>
</clipPath>
</defs>
</svg>
