<svg width="27" height="31" viewBox="0 0 27 31" fill="none" xmlns="http://www.w3.org/2000/svg">
<path d="M26.1735 3.83021L13.495 0.0266546C13.3763 -0.00888487 13.2498 -0.00888487 13.1311 0.0266546L0.452623 3.83021C0.184116 3.91038 5.94305e-05 4.15731 0 4.43753V18.3839C0 23.9891 8.54783 28.9756 13.1248 30.4006C13.2486 30.4395 13.3814 30.4395 13.5052 30.4006C18.077 28.9755 26.6249 23.989 26.6249 18.3839V4.43747C26.6249 4.15761 26.4415 3.9108 26.1735 3.83021Z" fill="#FF6600"/>
<path d="M12.0446 20.2857C11.8763 20.286 11.7149 20.2195 11.5958 20.1006L6.52437 15.0292C6.28118 14.7774 6.28813 14.3761 6.53994 14.1328C6.78563 13.8956 7.17508 13.8956 7.4207 14.1328L12.0446 18.7554L20.4707 10.3293C20.7139 10.0775 21.1152 10.0705 21.3671 10.3137C21.6189 10.5569 21.6258 10.9582 21.3827 11.2101C21.3775 11.2154 21.3724 11.2206 21.3671 11.2257L12.4921 20.1006C12.3733 20.2191 12.2124 20.2857 12.0446 20.2857Z" fill="#FAFAFA"/>
</svg>
