<svg width="124" height="57" viewBox="0 0 124 57" fill="none" xmlns="http://www.w3.org/2000/svg">
<g clip-path="url(#clip0)">
<path d="M1.93657 47.9297L1.02881 52.6501C0.907776 53.0132 0.907776 53.3158 0.907776 53.6789C0.907776 54.7077 1.51295 55.1918 2.36019 55.1918C3.4495 55.1918 4.23623 54.4656 4.53882 52.6501L5.50709 47.9297H6.47537L5.56761 52.6501C5.14399 55.0103 3.99416 55.9785 2.29967 55.9785C0.907776 55.9785 -0.0605011 55.2523 -0.0605011 53.6184L1.62274e-05 52.4685L0.847259 47.8692H1.93657V47.9297ZM7.86727 55.9785L8.59348 51.9239C8.77503 51.2582 8.77503 50.7135 8.89606 50.2294H9.74331L9.56175 51.3187C10.0459 50.4715 10.8326 50.0478 11.6799 50.0478C12.3456 50.0478 13.0718 50.4715 13.0718 51.6213L13.0112 52.5896L12.3456 55.8575H11.3168L11.9219 52.5896L11.9824 51.8028C11.9824 51.2582 11.7404 50.8346 11.0747 50.8346C10.409 50.8346 9.3802 51.6213 9.13813 53.0737L8.59348 55.8575H7.86727V55.9785ZM15.1899 55.9785L16.2792 50.2294H17.308L16.2187 55.9785H15.1899ZM16.4607 48.5954C16.4607 48.2928 16.8238 47.9297 17.1264 47.9297C17.4895 47.9297 17.7316 48.1718 17.7316 48.5349C17.7316 48.9585 17.4895 49.2006 17.0659 49.2006C16.7028 49.2006 16.4607 48.9585 16.4607 48.5954ZM21.5442 48.7165L21.3021 50.2294H22.6335L22.4519 50.9556H21.1206L20.6364 53.7394C20.5154 54.1025 20.5154 54.3446 20.5154 54.7077C20.5154 55.0103 20.6969 55.1918 21.06 55.1918H21.4837L21.3626 55.9785L20.6364 56.039C19.7892 56.039 19.4261 55.5549 19.4261 54.9497L19.4866 53.8604L20.0918 50.9556H19.2445L19.4261 50.2294H20.2733L20.5154 48.9585L21.5442 48.7165ZM27.8985 55.6154C27.4749 55.8575 26.7487 56.039 26.0225 56.039C24.5095 56.039 23.8438 55.0103 23.8438 53.7394C23.8438 52.0449 25.1147 50.0478 26.9302 50.0478C28.0195 50.0478 28.6247 50.7135 28.6247 51.5002C28.6247 53.0132 26.9302 53.4368 24.8121 53.3158C24.7516 53.6184 24.8121 54.1025 24.9332 54.4656C25.1752 54.9497 25.5988 55.1918 26.204 55.1918C26.8697 55.1918 27.3538 54.9497 27.717 54.7682L27.8985 55.6154ZM26.7487 50.8346C25.8409 50.8346 25.1752 51.7423 24.9332 52.5896C26.4461 52.5896 27.5959 52.408 27.5959 51.5002C27.5959 51.0766 27.2933 50.8346 26.7487 50.8346ZM36.2499 47.5061L34.979 54.1025C34.858 54.7077 34.737 55.3734 34.737 55.8575H33.7687L33.9502 54.7682C33.4661 55.6154 32.6794 56.039 31.9532 56.039C30.8033 56.039 30.2587 55.1313 30.2587 53.9209C30.2587 51.9239 31.7716 50.0478 33.7687 50.0478C34.1318 50.0478 34.5554 50.1083 34.7975 50.2294L35.2816 47.5061H36.2499ZM34.6159 51.0766C34.4344 50.8951 34.1318 50.8346 33.7082 50.8346C32.3768 50.8346 31.227 52.2265 31.227 53.7394C31.227 54.4656 31.5295 55.1918 32.3768 55.1918C33.103 55.1918 34.0713 54.3446 34.3133 53.0737L34.6159 51.0766ZM42.1201 48.0508C42.6647 47.9297 43.2699 47.8692 43.8146 47.8692C44.6618 47.8692 45.267 48.0508 45.6906 48.4139C46.0537 48.777 46.2958 49.2006 46.2958 49.6847C46.2958 50.7135 45.4485 51.5002 44.6013 51.7423C45.388 51.9844 45.9327 52.5896 45.9327 53.4973C45.9327 54.3446 45.509 54.9497 45.0249 55.3734C44.4197 55.8575 43.512 56.039 42.4227 56.039L40.7282 55.9785L42.1201 48.0508ZM41.8175 55.1313L42.6647 55.1918C43.8146 55.1918 44.9644 54.7077 44.9644 53.4368C44.9644 52.4685 44.1777 52.0449 43.2699 52.0449H42.4832L41.8175 55.1313ZM42.5437 51.3187H43.3304C44.4197 51.3187 45.388 50.7135 45.388 49.8058C45.388 49.019 44.7828 48.7165 43.9356 48.7165L43.0884 48.777L42.5437 51.3187ZM51.6213 55.9785L51.8028 54.5261C51.1977 55.6759 50.3504 56.0996 49.5637 56.0996C48.5954 56.0996 47.9903 55.2523 47.9903 54.284C47.9903 52.2265 49.4427 50.2294 51.9239 50.2294C52.4685 50.2294 53.1342 50.2899 53.4973 50.4715L52.8922 53.4368C52.7106 54.4656 52.6501 55.4339 52.6501 56.039H51.6213V55.9785ZM52.287 50.8951L51.6213 50.8346C50.1689 50.8346 48.898 52.3475 48.898 53.9209C48.898 54.5866 49.1401 55.1918 49.9268 55.1918C50.7741 55.1918 51.6818 54.1025 51.9239 52.5896L52.287 50.8951ZM55.0708 55.9785L55.8575 51.9239L56.0996 50.2294H56.9468L56.7653 51.3187C57.2494 50.4715 58.0361 50.0478 58.8834 50.0478C59.5491 50.0478 60.3358 50.4715 60.3358 51.6213L60.2148 52.5896L59.5491 55.8575H58.5203L59.1254 52.5896L59.186 51.8028C59.186 51.2582 58.9439 50.8346 58.2782 50.8346C57.6125 50.8346 56.5837 51.6213 56.3416 53.0737L55.8575 55.8575H55.0708V55.9785ZM62.5144 55.9785L64.0879 47.6271H65.0561L64.0273 52.8316C64.2089 52.6501 64.451 52.408 64.5115 52.2265L66.5691 50.2294H67.7189L65.2377 52.5896L66.8717 55.9785H65.7823L64.451 53.1947L63.6642 53.8604L63.2406 56.039H62.5144V55.9785ZM72.3182 55.9785L73.226 50.9556H72.4998L72.6208 50.2294H73.4075L73.468 49.8663C73.6496 49.019 73.8917 48.3533 74.4363 47.8692C74.7389 47.5061 75.2836 47.3246 75.7677 47.3246C76.1913 47.3246 76.4334 47.4456 76.5544 47.5061L76.2518 48.2928C76.1308 48.1718 75.9493 48.1718 75.7072 48.1718C74.9205 48.1718 74.4968 48.9585 74.3153 49.8663V50.2294H75.5862L75.4046 50.9556H74.1943L73.226 55.9785H72.3182ZM82.001 52.4685C82.001 54.284 80.7301 56.0996 78.7936 56.0996C77.4017 56.0996 76.615 55.0103 76.615 53.7394C76.615 51.9239 77.9463 50.1083 79.8224 50.1083C81.3353 50.0478 82.001 51.2582 82.001 52.4685ZM77.6437 53.6789C77.6437 54.5866 78.1279 55.2523 78.9751 55.2523C80.1855 55.2523 81.0327 53.7394 81.0327 52.4685C81.0327 51.8028 80.6696 50.8951 79.6408 50.8951C78.491 50.8346 77.6437 52.3475 77.6437 53.6789ZM83.8165 55.9785L84.4822 52.2265C84.6638 51.5002 84.7243 50.7135 84.7848 50.2294H85.632L85.511 51.5002C85.8136 50.7135 86.4793 50.1083 87.266 50.1083H87.5081L87.3265 51.0766H87.0844C86.2372 51.0766 85.511 52.0449 85.2084 53.4368L84.7243 55.9785H83.8165ZM93.4993 53.4368L92.2284 55.9785H91.1996L95.3753 48.0508H96.5252L97.675 55.9785H96.6462L96.2831 53.4368H93.4993ZM96.2226 52.5896L95.8595 50.2899C95.7989 49.8663 95.7989 49.2611 95.6779 48.8375L95.0122 50.2899L93.8624 52.5896H96.2226ZM99.6721 55.9785L100.58 50.9556H99.8536L100.035 50.2294H100.761L100.882 49.8663C101.003 49.019 101.306 48.3533 101.79 47.8692C102.093 47.5061 102.637 47.3246 103.122 47.3246C103.545 47.3246 103.787 47.4456 103.908 47.5061L103.666 48.2928C103.485 48.1718 103.303 48.1718 103.061 48.1718C102.274 48.1718 101.851 48.9585 101.73 49.8663L101.609 50.1083H102.879L102.698 50.8951H101.427L100.519 55.8575H99.6721V55.9785ZM103.969 55.9785L104.634 52.2265L104.998 50.2294H105.845L105.663 51.5002C106.026 50.7135 106.692 50.1083 107.418 50.1083H107.721L107.539 51.0766H107.297C106.45 51.0766 105.663 52.0449 105.421 53.4368L104.937 55.9785H103.969ZM108.81 55.9785L109.899 50.2294H110.928L109.839 55.9785H108.81ZM110.081 48.5954C110.081 48.2928 110.323 47.9297 110.747 47.9297C111.049 47.9297 111.352 48.1718 111.352 48.5349C111.352 48.9585 111.049 49.2006 110.626 49.2006C110.323 49.2006 110.081 48.9585 110.081 48.5954ZM116.496 55.6759C116.133 55.8575 115.528 56.039 114.801 56.039C113.288 56.039 112.623 55.0103 112.623 53.8604C112.623 51.9239 114.015 50.1083 116.072 50.1083C116.556 50.1083 117.101 50.2899 117.222 50.4109L116.98 51.1371C116.738 51.0766 116.496 50.8951 116.072 50.8951C114.559 50.8951 113.591 52.3475 113.591 53.6789C113.591 54.5866 114.136 55.1918 115.043 55.1918C115.649 55.1918 116.072 55.0103 116.375 54.8287L116.496 55.6759ZM122.245 55.9785L122.366 54.5261C121.821 55.6759 120.974 56.0996 120.187 56.0996C119.159 56.0996 118.614 55.2523 118.614 54.284C118.614 52.2265 120.006 50.2294 122.548 50.2294C123.092 50.2294 123.758 50.2899 124.061 50.4715L123.516 53.4368C123.334 54.4656 123.213 55.4339 123.213 56.039H122.245V55.9785ZM122.911 50.8951L122.245 50.8346C120.793 50.8346 119.522 52.3475 119.522 53.9209C119.522 54.5866 119.764 55.1918 120.551 55.1918C121.398 55.1918 122.306 54.1025 122.548 52.5896L122.911 50.8951ZM24.5701 14.04L20.939 30.8638C19.8497 34.4949 17.8526 37.0366 13.6164 37.2182C9.98538 37.2182 8.53296 34.7975 9.44072 29.714L12.6481 14.04H7.32261L3.63106 32.0137C2.96537 38.9126 7.02003 40.8492 13.1928 40.6676C19.063 40.4861 23.1176 37.8233 25.4173 32.4978L29.472 14.04H24.5701ZM69.4134 22.5124L71.5315 31.2269H63.6642L69.4134 22.5124ZM71.0474 14.04L53.1947 40.0625H58.0361L61.4251 35.0395H72.5603L73.6496 40.0625H79.3987L73.0444 14.04H71.0474ZM88.4158 40.244H98.6433C107.842 39.8204 109.839 35.6447 106.874 28.6852L95.6779 6.83846L88.4158 40.244ZM113.531 0C104.332 0.423621 102.395 4.65983 105.361 11.5588L116.496 33.4056L123.758 0H113.531ZM36.492 36.7945L38.368 28.0195H40.4861C43.5725 28.0195 46.1747 29.1088 46.1747 32.0137C46.1747 35.5237 42.7252 36.9761 38.8521 36.9761L36.492 36.7945ZM40.5466 17.3685H43.0884C45.8721 17.3685 47.5666 18.0342 47.5666 20.2733C47.5666 22.9361 45.0249 24.6306 41.2123 24.6306H39.0942L40.5466 17.3685ZM36.492 14.04L36.0683 14.1005L30.6823 40.1835H41.0308C44.5408 40.1835 46.5378 39.2152 47.8692 38.4285C49.9873 37.0366 51.5003 34.7975 52.0449 32.0742C52.7106 28.3826 50.1689 26.4461 47.022 26.1435C50.2294 25.4173 52.9527 23.0571 53.1342 19.6681C53.5578 14.04 47.2035 14.04 47.2035 14.04H36.492Z" fill="#D71920"/>
</g>
<defs>
<clipPath id="clip0">
<rect width="124" height="56.039" fill="white"/>
</clipPath>
</defs>
</svg>
